<?xml version="1.0" encoding="utf-8"?>
<svg viewBox="37.361 34.07 324.422 107.9" xmlns="http://www.w3.org/2000/svg">
  <g>
    <g transform="matrix(4.288578, 0, 0, 4.294689, -206.032959, -1053.392944)">
      <path id="path106" style="fill:#2b83ea;fill-rule:evenodd" d="M 69.355 253.211 L 79.131 253.211 C 80.543 253.211 81.909 254.366 81.909 255.778 L 81.909 271.793 L 76.28 271.793 L 76.356 258.644 L 69.355 258.644 L 69.355 253.211 Z"></path>
      <path id="path108" style="fill:#2b83ea;fill-rule:evenodd" d="M 69.328 265.682 L 69.309 264.535 L 75.616 259.314 L 75.56 265.286 C 75.56 265.575 75.473 265.682 75.152 265.682 L 69.328 265.682 Z"></path>
      <path id="path110" style="fill:#0c407e;fill-rule:evenodd" d="M 68.569 253.367 L 68.569 265.645 C 68.569 266.143 68.763 266.5 69.274 266.553 L 75.355 266.559 L 69.555 271.789 L 64.325 271.789 C 63.55 271.789 62.915 271.022 62.915 270.258 L 62.915 258.118 L 68.569 253.367 Z"></path>
      <path id="path112" style="fill:#041932;fill-rule:evenodd" d="M 56.754 263.125 L 62.163 258.643 L 62.163 270.67 C 62.163 271.801 63.1 272.547 64.223 272.547 L 81.703 272.547 L 75.003 278.335 L 61.887 278.335 C 59.064 278.348 56.754 276.025 56.754 273.202 L 56.754 263.125 Z"></path>
    </g>
    <g id="Layer1019" transform="matrix(4.288578, 0, 0, 4.288578, -201.611328, -1051.845581)">
      <path id="path115" style="fill:#041932;fill-rule:evenodd" d="m 83.3249,263.927 2.4772,10e-5 c 0.4413,-0.0946 0.3401,-0.6735 0.3401,-1.1315 -2e-4,-1.8226 -0.35,-1.5238 1.3239,-1.5238 1.6687,0 1.3376,-0.374 1.3376,1.5608 0,0.6016 -0.1259,1.0587 0.4739,1.096 l 2.4962,0.001 c 0.2817,-0.1326 0.3378,-0.1474 0.3595,-0.5786 0.036,-0.719 0.0264,-3.5896 -0.0343,-4.365 -0.024,-0.3079 -0.3197,-1.2201 -0.4183,-1.5517 -0.4834,-1.2337 -0.9512,-2.4682 -1.4359,-3.6994 -0.1055,-0.2564 -0.205,-0.4967 -0.7435,-0.5033 l -3.9225,4e-4 c -0.6925,0.007 -0.6904,0.3357 -0.8268,0.5981 -0.434,0.8351 -0.9205,2.2324 -1.2338,3.2005 -0.5477,1.6948 -0.6045,1.46 -0.6045,3.3247 l -8e-4,2.9584 c -6e-4,0.233 -0.0176,0.2428 0.0804,0.4066 0.1004,0.1677 0.1148,0.164 0.3316,0.2066 z m 3.0094,-5.3218 c 0.5035,0.0346 1.7949,0.0242 2.2781,0.0174 0.003,-0.401 -0.4849,-1.584 -0.6261,-2.1194 -0.1196,-0.3275 -0.1562,-0.4028 -0.5201,-0.4154 -0.4033,0.002 -0.381,0.0899 -0.4998,0.4086 -0.124,0.3573 -0.6286,1.8806 -0.6321,2.1088 z"></path>
      <path id="path117" style="fill:#041932;fill-rule:evenodd" d="m 122.8314,255.8443 c -0.005,0.737 -0.0532,1.929 0.1795,2.6483 0.1976,0.6106 0.7555,0.8536 0.8729,0.9924 0.1423,0.013 0.2804,0.1202 0.4426,0.1721 0.0732,0.0234 0.1812,0.0486 0.2548,0.0692 0.0312,0.009 0.0759,0.0223 0.1107,0.036 0.1532,0.0601 1.9364,0.3122 2.3342,0.3475 0.465,0.0414 0.6901,0.0598 0.7118,0.5063 0.0271,0.5605 -0.3012,0.4845 -0.7839,0.4843 -0.8082,-2e-4 -3.6588,-0.2784 -4.1163,0.3193 -0.0673,0.1214 -0.0174,1.1922 -0.0173,1.4129 10e-5,0.7348 -0.0732,0.673 0.1736,1.0062 0.006,0.008 0.0125,0.0176 0.0177,0.0247 l 0.0364,0.0512 0.2454,0.0166 5.1023,0.001 c 2.6955,-0.2143 2.8726,-2.0754 2.7404,-4.3195 -0.0323,-0.5482 -0.2695,-1.312 -0.7142,-1.6523 -0.9762,-0.747 -2.5981,-0.7102 -3.7992,-0.9282 -0.6521,-0.1184 -0.5723,-0.9156 0.0377,-0.9494 0.5728,-0.0316 2.1999,-8e-4 2.8447,-8e-4 0.9328,0.0116 1.0928,0.0805 1.0721,-0.8292 -1e-4,-0.3396 0.0725,-1.6606 -0.0856,-1.8388 -0.1931,-0.2176 -0.3975,-0.1828 -0.7277,-0.1821 -0.3204,6e-4 -0.6409,-1e-4 -0.9613,1e-4 -0.8188,7e-4 -3.0727,-0.0454 -3.7343,0.0645 -0.1637,0.0272 -0.6664,0.1645 -0.8156,0.2519 -0.9195,0.5362 -1.4142,1.1976 -1.4214,2.2957 z"></path>
      <path id="path119" style="fill:#041932;fill-rule:evenodd" d="m 94.454,263.932 7.1359,-0.008 c 0.2456,-0.0978 0.3128,-0.1657 0.3215,-0.4975 0.008,-0.2929 5e-4,-0.5954 4e-4,-0.8894 -1e-4,-0.2805 0.0525,-1.0615 -0.0825,-1.2358 -0.0251,-0.0323 -0.1976,-0.1778 -0.2476,-0.1869 l -4.2005,-0.0246 c -0.1029,-0.033 -0.0159,0.016 -0.0844,-0.0502 -0.0546,-0.077 -0.0634,-1.0436 0.0052,-1.1623 0.0799,-0.0866 0.8155,-0.0449 0.9235,-0.0449 l 1.9252,0.001 c 0.101,-0.001 0.1402,0.003 0.2269,-0.0302 0.2662,-0.1009 0.2552,-0.2188 0.3,-0.3354 0.0265,-0.5812 0.0411,-1.4505 -0.0164,-2.0197 -0.0798,-0.1098 -0.0218,-0.1604 -0.2248,-0.2281 -0.3342,-0.1114 -3.0044,0.0767 -3.1353,-0.0693 -0.1072,-0.2352 -0.0346,-0.6902 -0.0341,-0.9734 0.0228,-0.0787 -0.0043,-0.0522 0.0559,-0.0636 l 0.0604,-0.0296 c 0.2383,-0.0793 3.5608,-0.0122 4.1696,-0.0263 0.4336,-0.0744 0.3595,-0.6044 0.3592,-0.9527 -3e-4,-0.2655 0.067,-1.4954 -0.0656,-1.6605 -0.2442,-0.3041 -0.4756,-0.2153 -0.848,-0.2124 h -4.178 c -0.4592,0 -2.4846,-0.0908 -2.6887,0.1068 -0.2546,0.2465 -0.1718,0.7275 -0.1718,1.2115 l -10e-5,8.43 c -2e-4,0.5104 -0.0651,0.905 0.4941,0.9515 z"></path>
      <path id="path121" style="fill:#041932;fill-rule:evenodd" d="m 103.4804,256.0297 c 0,2.0007 -0.5858,5.695 0.8665,7.15 0.3036,0.3042 0.8523,0.4726 1.2701,0.5799 0.3876,0.0994 0.5767,0.1434 1.0013,0.1699 0.5436,0.0431 5.3299,0.0433 5.482,-0.0506 0.3198,-0.1974 0.2174,-0.7752 0.2174,-1.1572 0.014,-0.6856 0.1583,-4.0032 -0.1533,-4.3645 -0.3152,-0.1245 -2.4179,-0.0793 -2.8932,-0.0522 -0.2172,0.1161 -0.2566,0.0944 -0.2901,0.4603 l -0.0174,2.3081 c -0.1734,0.047 -1.4315,0.0469 -1.6376,0.0152 -0.1966,-0.0302 -0.3752,-0.1442 -0.4595,-0.3494 -0.1256,-0.3054 -0.1853,-3.9578 0.1192,-4.3782 0.1574,-0.1852 0.3321,-0.2212 0.578,-0.2503 0.4019,-0.0476 0.8807,-0.0202 1.3101,-0.0202 h 1.9993 c 0.3673,-0.009 0.2721,-0.1066 0.4035,-0.1722 0.0912,-0.5914 0.0788,-1.6979 0.0353,-2.3289 -0.0733,-0.4479 -0.5035,-0.357 -0.9592,-0.3572 -1.0784,-3e-4 -3.2572,-0.0485 -4.1104,0.0508 -0.2153,0.025 -0.9549,0.1733 -1.1209,0.2528 -0.007,0.004 -0.0164,0.009 -0.0233,0.0126 l -0.1906,0.1012 c -0.0577,0.024 -0.0902,0.0347 -0.1331,0.0556 -0.4289,0.2089 -0.7043,0.5318 -0.938,0.9497 -0.2515,0.4496 -0.3122,0.7758 -0.3561,1.3748 z"></path>
      <path id="path123" style="fill:#041932;fill-rule:evenodd" d="m 113.9286,253.4144 c -0.0949,0.4993 -0.0525,1.8583 -0.0257,2.43 0.2763,0.5291 1.4273,0.0643 1.9457,0.2864 0.0649,0.2313 0.0413,4.7851 -0.01,4.9024 -0.009,0.005 -0.024,-1e-4 -0.0296,0.0121 -0.006,0.0123 -0.0221,0.009 -0.0303,0.0111 l -1.3612,0.0196 c -0.1359,4e-4 -0.2054,-0.01 -0.3023,0.0476 -0.0892,0.0529 0.0861,-0.0609 -0.0415,0.0301 -0.2532,0.1805 -0.187,0.2574 -0.1866,0.8655 3e-4,0.4769 -0.0228,1.0112 0.001,1.481 0.0278,0.5455 0.467,0.4356 1.0491,0.4355 0.986,0 1.9723,-4e-4 2.9579,0 0.9621,4e-4 2.0473,0.0464 2.9946,-0.009 0.4068,-0.0704 0.3371,-0.5132 0.3369,-0.9088 -2e-4,-0.4315 5e-4,-0.863 10e-5,-1.2946 -3e-4,-0.3168 0.0194,-0.397 -0.1827,-0.5635 l -0.1274,-0.0744 c -0.1704,-0.0374 -1.2567,0.0416 -1.5797,-0.0252 -0.0858,-0.0682 -0.0504,0.0828 -0.0813,-0.1129 l -3e-4,-4.7326 c 0.0323,-0.18 -0.002,-0.0529 0.0816,-0.1079 0.2301,-0.0447 0.801,-0.0162 1.0724,-0.0158 0.1477,2e-4 0.3967,0.0208 0.5298,-0.0188 0.1342,-0.0398 0.2735,-0.213 0.2735,-0.2418 l 0.005,-2.2406 c -0.009,-0.0735 -0.002,-0.0726 -0.0431,-0.1361 -0.1305,-0.2041 -0.298,-0.2193 -0.5048,-0.2214 l -6.4252,0.008 c -0.1537,0.024 -0.2295,0.0421 -0.3165,0.1747 z"></path>
    </g>
    <g transform="matrix(4.288578, 0, 0, 4.288578, -206.032959, -1051.845581)">
      <path id="path126" style="fill-rule: evenodd; fill: rgb(43, 131, 234);" d="M 90.318 269.268 C 89.972 270.681 88.744 271.669 87.178 271.669 C 85.32 271.669 83.942 270.282 83.942 268.439 C 83.942 266.595 85.32 265.209 87.178 265.209 C 88.758 265.209 89.992 266.204 90.327 267.64 L 89.746 267.64 C 89.423 266.516 88.427 265.744 87.178 265.744 C 85.65 265.744 84.498 266.901 84.498 268.439 C 84.498 269.976 85.65 271.125 87.178 271.125 C 88.414 271.125 89.403 270.376 89.737 269.268 L 90.318 269.268 Z"></path>
      <path id="path126" style="fill-rule: evenodd; fill: rgb(43, 131, 234);" d="M 132.402 266.667 L 130.793 266.667 L 130.793 271.58 L 130.237 271.58 L 130.237 266.667 L 129.924 266.667 L 129.924 271.58 L 129.359 271.58 L 129.359 266.667 L 127.75 266.667 L 127.75 266.132 L 132.402 266.132 L 132.402 266.667 Z"></path>
      <path id="path126" style="fill-rule: evenodd; fill: rgb(43, 131, 234);" d="M 132.402 265.842 L 127.75 265.842 L 127.75 265.307 L 132.402 265.307 L 132.402 265.842 Z"></path>
      <path id="path126" style="fill-rule: evenodd; fill: rgb(43, 131, 234);" d="M 125.576 271.58 L 123.147 267.841 L 123.147 271.58 L 122.583 271.58 L 122.583 265.306 L 123.147 265.306 L 125.576 269.045 L 125.576 265.306 L 126.132 265.306 L 126.132 271.58 L 125.576 271.58 Z M 123.147 266.308 L 123.147 266.844 L 125.576 270.58 L 125.576 270.044 L 123.147 266.308 Z"></path>
      <path id="path126" style="fill-rule: evenodd; fill: rgb(43, 131, 234);" d="M 126.446 271.58 L 126.446 265.306 L 127.01 265.306 L 127.01 271.58 L 126.446 271.58 Z"></path>
      <path id="path126" style="fill-rule: evenodd; fill: rgb(43, 131, 234);" d="M 122.269 265.306 L 122.269 271.58 L 121.713 271.58 L 121.713 265.306 L 122.269 265.306 Z"></path>
      <path id="path126" style="fill-rule: evenodd; fill: rgb(43, 131, 234);" d="M 121.022 271.579 L 120.44 271.579 L 118.379 266.077 L 118.224 266.493 L 120.124 271.579 L 119.542 271.579 L 119.239 270.763 L 116.625 270.763 L 116.319 271.579 L 115.738 271.579 L 118.086 265.307 L 118.667 265.307 L 121.022 271.579 Z M 116.825 270.228 L 119.041 270.228 L 118.932 269.938 L 116.934 269.938 L 116.825 270.228 Z M 117.134 269.404 L 118.733 269.404 L 117.937 267.26 L 117.134 269.404 Z"></path>
      <path id="path126" style="fill-rule: evenodd; fill: rgb(43, 131, 234);" d="M 115.421 271.579 L 114.84 271.579 L 117.188 265.307 L 117.769 265.307 L 115.421 271.579 Z"></path>
      <path id="path126" style="fill-rule: evenodd; fill: rgb(43, 131, 234);" d="M 114.157 271.58 L 113.593 271.58 L 113.593 265.306 L 114.157 265.306 L 114.157 271.58 Z"></path>
      <path id="path126" style="fill-rule: evenodd; fill: rgb(43, 131, 234);" d="M 113.279 265.306 L 113.279 271.58 L 112.723 271.58 L 110.294 267.841 L 110.294 271.58 L 109.73 271.58 L 109.73 265.306 L 110.294 265.306 L 112.723 269.045 L 112.723 265.306 L 113.279 265.306 Z M 110.294 266.308 L 110.294 266.844 L 112.723 270.58 L 112.723 270.044 L 110.294 266.308 Z"></path>
      <path id="path126" style="fill-rule: evenodd; fill: rgb(43, 131, 234);" d="M 108.86 271.58 L 108.86 265.306 L 109.416 265.306 L 109.416 271.58 L 108.86 271.58 Z"></path>
      <path id="path126" style="fill-rule: evenodd; fill: rgb(43, 131, 234);" d="M 108.113 265.307 L 108.113 265.842 L 105.813 265.842 L 105.813 266.132 L 108.113 266.132 L 108.113 266.667 L 105.813 266.667 L 105.813 267.799 L 108.113 267.799 L 108.113 268.334 L 105.813 268.334 L 105.813 268.624 L 108.113 268.624 L 108.113 269.158 L 105.813 269.158 L 105.813 270.219 L 108.113 270.219 L 108.113 270.754 L 105.813 270.754 L 105.813 271.044 L 108.113 271.044 L 108.113 271.579 L 105.248 271.579 L 105.248 265.307 L 108.113 265.307 Z"></path>
      <path id="path126" style="fill-rule: evenodd; fill: rgb(43, 131, 234);" d="M 104.379 271.579 L 104.379 265.307 L 104.934 265.307 L 104.934 271.579 L 104.379 271.579 Z"></path>
      <path id="path126" style="fill-rule: evenodd; fill: rgb(43, 131, 234);" d="M 99.854 271.579 L 97.505 265.306 L 98.086 265.306 L 100.435 271.579 L 99.854 271.579 Z"></path>
      <path id="path126" style="fill-rule: evenodd; fill: rgb(43, 131, 234);" d="M 97.45 268.439 C 97.45 270.282 96.072 271.669 94.214 271.669 C 92.356 271.669 90.979 270.282 90.979 268.439 C 90.979 267.544 91.301 266.758 91.845 266.18 C 92.429 265.573 93.258 265.209 94.214 265.209 C 96.072 265.209 97.45 266.595 97.45 268.439 Z M 96.894 268.439 C 96.894 266.901 95.743 265.744 94.214 265.744 C 93.449 265.744 92.779 266.031 92.301 266.521 C 91.818 267 91.534 267.671 91.534 268.439 C 91.534 269.976 92.686 271.125 94.214 271.125 C 95.743 271.125 96.894 269.976 96.894 268.439 Z"></path>
      <path id="path126" style="fill-rule: evenodd; fill: rgb(43, 131, 234);" d="M 96.58 268.439 C 96.58 269.807 95.556 270.835 94.214 270.835 C 92.873 270.835 91.839 269.807 91.839 268.439 C 91.839 267.737 92.112 267.126 92.559 266.695 C 92.98 266.282 93.56 266.034 94.214 266.034 C 95.556 266.034 96.58 267.07 96.58 268.439 Z M 96.025 268.439 C 96.025 267.368 95.235 266.577 94.214 266.577 C 93.726 266.577 93.288 266.76 92.967 267.067 C 92.617 267.401 92.404 267.881 92.404 268.439 C 92.404 269.51 93.194 270.3 94.214 270.3 C 95.235 270.3 96.025 269.51 96.025 268.439 Z"></path>
      <path id="path126" style="fill-rule: evenodd; fill: rgb(43, 131, 234);" d="M 88.827 267.64 C 88.543 266.994 87.922 266.577 87.178 266.577 C 86.158 266.577 85.367 267.368 85.367 268.439 C 85.367 269.51 86.158 270.3 87.178 270.3 C 87.907 270.3 88.521 269.897 88.812 269.268 L 89.411 269.268 C 89.089 270.203 88.233 270.835 87.178 270.835 C 85.837 270.835 84.803 269.807 84.803 268.439 C 84.803 267.07 85.837 266.034 87.178 266.034 C 88.242 266.034 89.104 266.688 89.42 267.64 L 88.827 267.64 Z"></path>
      <path id="path-2" style="fill-rule: evenodd; fill: rgb(43, 131, 234);" d="M 101.332 271.579 L 100.751 271.579 L 98.403 265.306 L 98.984 265.306 L 100.602 269.626 L 102.208 265.306 L 102.789 265.306 L 100.889 270.393 L 101.044 270.81 L 103.106 265.306 L 103.687 265.306 L 101.332 271.579 Z"></path>
    </g>
  </g>
</svg>