<?xml version="1.0" encoding="utf-8"?>
<svg viewBox="0 0 320 107.7" xmlns="http://www.w3.org/2000/svg">
  <g id="Layer1016" transform="matrix(4.288578, 0, 0, 4.288578, -243.654838, -1086.437288)">
    <g id="Layer1017">
      <path id="path106" style="fill:#2b83ea;fill-rule:evenodd" d="m 69.3546,253.2114 h 9.7766 c 1.4115,0 2.7777,1.155 2.7777,2.5663 v 15.8497 h -5.6285 l 0.0756,-12.9839 -7.0014,-0.0754 z"/>
      <path id="path108" style="fill:#2b83ea;fill-rule:evenodd" d="m 69.3279,265.4488 -0.0188,-1.1468 6.3073,-5.2209 -0.0566,5.9716 c 0.0199,0.2828 -0.1054,0.4251 -0.4075,0.3961 z"/>
      <path id="path110" style="fill:#0c407e;fill-rule:evenodd" d="m 68.5687,253.3674 -0.1552,12.2772 c 0.0296,0.4881 0.3491,0.8551 0.7055,0.9087 l 6.2358,0.006 -5.8003,5.0886 h -5.2292 c -0.7758,0 -1.4105,-0.6256 -1.4105,-1.3903 v -12.1398 z"/>
      <path id="path112" style="fill:#041932;fill-rule:evenodd" d="m 56.754,263.1252 5.4085,-4.4825 0.0231,12.0273 c 0.2512,1.0616 0.9767,1.6399 2.0377,1.8765 l 17.6393,-0.0509 -6.6997,5.7793 -13.2762,0.0603 c -2.8229,0.0128 -5.1327,-2.3097 -5.1327,-5.1327 z"/>
    </g>
    <g id="Layer1018">
      <g id="Layer1019">
        <path id="path115" style="fill:#041932;fill-rule:evenodd" d="m 83.3249,263.927 2.4772,10e-5 c 0.4413,-0.0946 0.3401,-0.6735 0.3401,-1.1315 -2e-4,-1.8226 -0.35,-1.5238 1.3239,-1.5238 1.6687,0 1.3376,-0.374 1.3376,1.5608 0,0.6016 -0.1259,1.0587 0.4739,1.096 l 2.4962,0.001 c 0.2817,-0.1326 0.3378,-0.1474 0.3595,-0.5786 0.036,-0.719 0.0264,-3.5896 -0.0343,-4.365 -0.024,-0.3079 -0.3197,-1.2201 -0.4183,-1.5517 -0.4834,-1.2337 -0.9512,-2.4682 -1.4359,-3.6994 -0.1055,-0.2564 -0.205,-0.4967 -0.7435,-0.5033 l -3.9225,4e-4 c -0.6925,0.007 -0.6904,0.3357 -0.8268,0.5981 -0.434,0.8351 -0.9205,2.2324 -1.2338,3.2005 -0.5477,1.6948 -0.6045,1.46 -0.6045,3.3247 l -8e-4,2.9584 c -6e-4,0.233 -0.0176,0.2428 0.0804,0.4066 0.1004,0.1677 0.1148,0.164 0.3316,0.2066 z m 3.0094,-5.3218 c 0.5035,0.0346 1.7949,0.0242 2.2781,0.0174 0.003,-0.401 -0.4849,-1.584 -0.6261,-2.1194 -0.1196,-0.3275 -0.1562,-0.4028 -0.5201,-0.4154 -0.4033,0.002 -0.381,0.0899 -0.4998,0.4086 -0.124,0.3573 -0.6286,1.8806 -0.6321,2.1088 z"/>
        <path id="path117" style="fill:#041932;fill-rule:evenodd" d="m 122.8314,255.8443 c -0.005,0.737 -0.0532,1.929 0.1795,2.6483 0.1976,0.6106 0.7555,0.8536 0.8729,0.9924 0.1423,0.013 0.2804,0.1202 0.4426,0.1721 0.0732,0.0234 0.1812,0.0486 0.2548,0.0692 0.0312,0.009 0.0759,0.0223 0.1107,0.036 0.1532,0.0601 1.9364,0.3122 2.3342,0.3475 0.465,0.0414 0.6901,0.0598 0.7118,0.5063 0.0271,0.5605 -0.3012,0.4845 -0.7839,0.4843 -0.8082,-2e-4 -3.6588,-0.2784 -4.1163,0.3193 -0.0673,0.1214 -0.0174,1.1922 -0.0173,1.4129 10e-5,0.7348 -0.0732,0.673 0.1736,1.0062 0.006,0.008 0.0125,0.0176 0.0177,0.0247 l 0.0364,0.0512 0.2454,0.0166 5.1023,0.001 c 2.6955,-0.2143 2.8726,-2.0754 2.7404,-4.3195 -0.0323,-0.5482 -0.2695,-1.312 -0.7142,-1.6523 -0.9762,-0.747 -2.5981,-0.7102 -3.7992,-0.9282 -0.6521,-0.1184 -0.5723,-0.9156 0.0377,-0.9494 0.5728,-0.0316 2.1999,-8e-4 2.8447,-8e-4 0.9328,0.0116 1.0928,0.0805 1.0721,-0.8292 -1e-4,-0.3396 0.0725,-1.6606 -0.0856,-1.8388 -0.1931,-0.2176 -0.3975,-0.1828 -0.7277,-0.1821 -0.3204,6e-4 -0.6409,-1e-4 -0.9613,1e-4 -0.8188,7e-4 -3.0727,-0.0454 -3.7343,0.0645 -0.1637,0.0272 -0.6664,0.1645 -0.8156,0.2519 -0.9195,0.5362 -1.4142,1.1976 -1.4214,2.2957 z"/>
        <path id="path119" style="fill:#041932;fill-rule:evenodd" d="m 94.454,263.932 7.1359,-0.008 c 0.2456,-0.0978 0.3128,-0.1657 0.3215,-0.4975 0.008,-0.2929 5e-4,-0.5954 4e-4,-0.8894 -1e-4,-0.2805 0.0525,-1.0615 -0.0825,-1.2358 -0.0251,-0.0323 -0.1976,-0.1778 -0.2476,-0.1869 l -4.2005,-0.0246 c -0.1029,-0.033 -0.0159,0.016 -0.0844,-0.0502 -0.0546,-0.077 -0.0634,-1.0436 0.0052,-1.1623 0.0799,-0.0866 0.8155,-0.0449 0.9235,-0.0449 l 1.9252,0.001 c 0.101,-0.001 0.1402,0.003 0.2269,-0.0302 0.2662,-0.1009 0.2552,-0.2188 0.3,-0.3354 0.0265,-0.5812 0.0411,-1.4505 -0.0164,-2.0197 -0.0798,-0.1098 -0.0218,-0.1604 -0.2248,-0.2281 -0.3342,-0.1114 -3.0044,0.0767 -3.1353,-0.0693 -0.1072,-0.2352 -0.0346,-0.6902 -0.0341,-0.9734 0.0228,-0.0787 -0.0043,-0.0522 0.0559,-0.0636 l 0.0604,-0.0296 c 0.2383,-0.0793 3.5608,-0.0122 4.1696,-0.0263 0.4336,-0.0744 0.3595,-0.6044 0.3592,-0.9527 -3e-4,-0.2655 0.067,-1.4954 -0.0656,-1.6605 -0.2442,-0.3041 -0.4756,-0.2153 -0.848,-0.2124 h -4.178 c -0.4592,0 -2.4846,-0.0908 -2.6887,0.1068 -0.2546,0.2465 -0.1718,0.7275 -0.1718,1.2115 l -10e-5,8.43 c -2e-4,0.5104 -0.0651,0.905 0.4941,0.9515 z"/>
        <path id="path121" style="fill:#041932;fill-rule:evenodd" d="m 103.4804,256.0297 c 0,2.0007 -0.5858,5.695 0.8665,7.15 0.3036,0.3042 0.8523,0.4726 1.2701,0.5799 0.3876,0.0994 0.5767,0.1434 1.0013,0.1699 0.5436,0.0431 5.3299,0.0433 5.482,-0.0506 0.3198,-0.1974 0.2174,-0.7752 0.2174,-1.1572 0.014,-0.6856 0.1583,-4.0032 -0.1533,-4.3645 -0.3152,-0.1245 -2.4179,-0.0793 -2.8932,-0.0522 -0.2172,0.1161 -0.2566,0.0944 -0.2901,0.4603 l -0.0174,2.3081 c -0.1734,0.047 -1.4315,0.0469 -1.6376,0.0152 -0.1966,-0.0302 -0.3752,-0.1442 -0.4595,-0.3494 -0.1256,-0.3054 -0.1853,-3.9578 0.1192,-4.3782 0.1574,-0.1852 0.3321,-0.2212 0.578,-0.2503 0.4019,-0.0476 0.8807,-0.0202 1.3101,-0.0202 h 1.9993 c 0.3673,-0.009 0.2721,-0.1066 0.4035,-0.1722 0.0912,-0.5914 0.0788,-1.6979 0.0353,-2.3289 -0.0733,-0.4479 -0.5035,-0.357 -0.9592,-0.3572 -1.0784,-3e-4 -3.2572,-0.0485 -4.1104,0.0508 -0.2153,0.025 -0.9549,0.1733 -1.1209,0.2528 -0.007,0.004 -0.0164,0.009 -0.0233,0.0126 l -0.1906,0.1012 c -0.0577,0.024 -0.0902,0.0347 -0.1331,0.0556 -0.4289,0.2089 -0.7043,0.5318 -0.938,0.9497 -0.2515,0.4496 -0.3122,0.7758 -0.3561,1.3748 z"/>
        <path id="path123" style="fill:#041932;fill-rule:evenodd" d="m 113.9286,253.4144 c -0.0949,0.4993 -0.0525,1.8583 -0.0257,2.43 0.2763,0.5291 1.4273,0.0643 1.9457,0.2864 0.0649,0.2313 0.0413,4.7851 -0.01,4.9024 -0.009,0.005 -0.024,-1e-4 -0.0296,0.0121 -0.006,0.0123 -0.0221,0.009 -0.0303,0.0111 l -1.3612,0.0196 c -0.1359,4e-4 -0.2054,-0.01 -0.3023,0.0476 -0.0892,0.0529 0.0861,-0.0609 -0.0415,0.0301 -0.2532,0.1805 -0.187,0.2574 -0.1866,0.8655 3e-4,0.4769 -0.0228,1.0112 0.001,1.481 0.0278,0.5455 0.467,0.4356 1.0491,0.4355 0.986,0 1.9723,-4e-4 2.9579,0 0.9621,4e-4 2.0473,0.0464 2.9946,-0.009 0.4068,-0.0704 0.3371,-0.5132 0.3369,-0.9088 -2e-4,-0.4315 5e-4,-0.863 10e-5,-1.2946 -3e-4,-0.3168 0.0194,-0.397 -0.1827,-0.5635 l -0.1274,-0.0744 c -0.1704,-0.0374 -1.2567,0.0416 -1.5797,-0.0252 -0.0858,-0.0682 -0.0504,0.0828 -0.0813,-0.1129 l -3e-4,-4.7326 c 0.0323,-0.18 -0.002,-0.0529 0.0816,-0.1079 0.2301,-0.0447 0.801,-0.0162 1.0724,-0.0158 0.1477,2e-4 0.3967,0.0208 0.5298,-0.0188 0.1342,-0.0398 0.2735,-0.213 0.2735,-0.2418 l 0.005,-2.2406 c -0.009,-0.0735 -0.002,-0.0726 -0.0431,-0.1361 -0.1305,-0.2041 -0.298,-0.2193 -0.5048,-0.2214 l -6.4252,0.008 c -0.1537,0.024 -0.2295,0.0421 -0.3165,0.1747 z"/>
      </g>
      <path id="path126" style="fill:#0c407e;fill-rule:evenodd" d="m 89.1587,269.2678 c -0.3467,1.3445 -1.5177,2.2782 -3.0116,2.2782 -1.7866,0 -3.1104,-1.3326 -3.1104,-3.1073 0,-1.7748 1.3238,-3.1071 3.1104,-3.1071 1.5072,0 2.689,0.9425 3.0206,2.308 h 0.1285 c -0.3348,-1.4358 -1.5687,-2.4307 -3.1491,-2.4307 -1.8583,0 -3.2357,1.3864 -3.2357,3.2298 0,1.8433 1.3774,3.2298 3.2357,3.2298 1.5656,0 2.7936,-0.9876 3.14,-2.4007 z m -0.4527,0 c -0.3345,1.1084 -1.3235,1.857 -2.5589,1.857 -1.5284,0 -2.6801,-1.1489 -2.6801,-2.6861 0,-1.5373 1.1517,-2.6949 2.6801,-2.6949 1.2487,0 2.2451,0.7724 2.568,1.8958 h 0.1284 c -0.3226,-1.1923 -1.3743,-2.0183 -2.6964,-2.0183 -1.6001,0 -2.8054,1.2116 -2.8054,2.8174 0,1.6058 1.2053,2.8085 2.8054,2.8085 1.3071,0 2.3528,-0.8022 2.6904,-1.9794 z m -0.457,0 c -0.3169,0.8606 -1.1191,1.4445 -2.1019,1.4445 -1.2699,0 -2.2498,-0.9739 -2.2498,-2.2736 0,-1.2997 0.9799,-2.2825 2.2498,-2.2825 0.9919,0 1.806,0.6018 2.1107,1.4834 h 0.1316 c -0.3167,-0.9516 -1.1787,-1.6061 -2.2423,-1.6061 -1.3416,0 -2.3754,1.0369 -2.3754,2.4052 0,1.3685 1.0338,2.3961 2.3754,2.3961 1.0545,0 1.9106,-0.6318 2.2332,-1.567 z m -0.4677,0 c -0.2914,0.629 -0.9054,1.0324 -1.6342,1.0324 -1.0204,0 -1.8107,-0.7903 -1.8107,-1.8615 0,-1.071 0.7903,-1.8613 1.8107,-1.8613 0.7439,0 1.3652,0.4167 1.6492,1.0622 h 0.1358 c -0.2942,-0.7141 -0.968,-1.1846 -1.785,-1.1846 -1.089,0 -1.936,0.847 -1.936,1.9837 0,1.137 0.847,1.9839 1.936,1.9839 0.8023,0 1.4715,-0.4572 1.7703,-1.1548 z m 5.402,-4.0589 c -0.9561,0 -1.7853,0.3645 -2.3695,0.9711 -0.5437,0.578 -0.8662,1.3638 -0.8662,2.2587 0,1.8433 1.3773,3.2298 3.2357,3.2298 1.8581,0 3.2355,-1.3865 3.2355,-3.2298 0,-1.8434 -1.3774,-3.2298 -3.2355,-3.2298 z m 0,6.3371 c -1.7867,0 -3.1104,-1.3326 -3.1104,-3.1073 0,-0.868 0.3152,-1.6282 0.8441,-2.1841 0.5618,-0.578 1.3536,-0.923 2.2663,-0.923 1.785,0 3.1102,1.3323 3.1102,3.1071 0,1.7747 -1.3252,3.1073 -3.1102,3.1073 z m 0,-5.9247 c -0.7994,0 -1.4998,0.3002 -2.0018,0.8082 -0.5035,0.5034 -0.8036,1.2056 -0.8036,2.0092 0,1.6058 1.2052,2.8085 2.8054,2.8085 1.5999,0 2.8055,-1.2027 2.8055,-2.8085 0,-1.6058 -1.2056,-2.8174 -2.8055,-2.8174 z m 0,5.5035 c -1.5284,0 -2.6802,-1.1489 -2.6802,-2.6861 0,-0.7679 0.2841,-1.4386 0.7665,-1.9179 0.478,-0.4902 1.1486,-0.777 1.9137,-0.777 1.5282,0 2.6799,1.1576 2.6799,2.6949 0,1.5372 -1.1517,2.6861 -2.6799,2.6861 z m 0,-5.0913 c -0.6545,0 -1.2339,0.248 -1.6554,0.6619 -0.4465,0.4303 -0.72,1.0411 -0.72,1.7433 0,1.3685 1.0338,2.3961 2.3754,2.3961 1.3414,0 2.3661,-1.0276 2.3661,-2.3961 0,-1.3683 -1.0247,-2.4052 -2.3661,-2.4052 z m 0,4.6788 c -1.2699,0 -2.2499,-0.9739 -2.2499,-2.2736 0,-0.6662 0.2614,-1.2473 0.6826,-1.6552 0.4006,-0.3897 0.9488,-0.6273 1.5673,-0.6273 1.2696,0 2.2408,0.9828 2.2408,2.2825 0,1.2997 -0.9712,2.2736 -2.2408,2.2736 z m 0,-4.2573 c -0.5275,0 -0.9981,0.1987 -1.343,0.5332 -0.3677,0.3555 -0.5931,0.8634 -0.5931,1.4505 0,1.137 0.847,1.9839 1.9361,1.9839 1.0888,0 1.9361,-0.8469 1.9361,-1.9839 0,-1.1367 -0.8473,-1.9837 -1.9361,-1.9837 z m 0,3.8452 c -1.0205,0 -1.8108,-0.7903 -1.8108,-1.8615 0,-0.5573 0.2138,-1.0381 0.5633,-1.3714 0.3211,-0.3076 0.7588,-0.4899 1.2475,-0.4899 1.0202,0 1.8105,0.7903 1.8105,1.8613 0,1.0712 -0.7903,1.8615 -1.8105,1.8615 z m 3.4223,-4.9941 H 96.474 l 2.3486,6.2728 h 0.1315 z m 0.4495,0 h -0.1312 l 2.3482,6.2728 h 0.1316 z m 0.4482,0 h -0.1312 l 2.3482,6.2728 h 0.1315 z m 5.1525,0 h -0.1315 l -2.2887,6.0965 -0.1567,-0.4198 2.1271,-5.6767 h -0.1313 l -2.0616,5.5035 -0.1553,-0.417 1.9,-5.0865 h -0.1312 l -1.836,4.9073 -0.1554,-0.4138 1.6731,-4.4935 h -0.1316 l -1.6058,4.3203 -1.6177,-4.3203 h -0.1316 l 2.3483,6.2728 h 0.1315 z m 0.6917,0.001 v 6.2714 h 0.1253 v -6.2714 z m 0.43,0 v 6.2714 h 0.1256 v -6.2714 z m 0.4394,0 v 6.2714 h 0.1253 v -6.2714 z m 0.5646,0.1225 h 1.8942 v -0.1225 h -2.0197 v 6.2714 h 2.0197 v -0.1225 h -1.8942 v -0.2899 h 1.8942 v -0.1225 h -1.8942 v -0.2897 h 1.8942 v -0.1225 h -1.8942 v -0.2899 h 1.8942 v -0.1225 h -1.8942 v -1.0607 h 1.8942 v -0.1225 h -1.8942 v -0.2897 h 1.8942 v -0.1224 h -1.8942 v -0.29 h 1.8942 v -0.1225 h -1.8942 v -0.2897 h 1.8942 v -0.1224 h -1.8942 v -1.1325 h 1.8942 v -0.1224 h -1.8942 v -0.29 h 1.8942 v -0.1225 h -1.8942 v -0.2897 h 1.8942 V 265.72 h -1.8942 z m 3.0476,-0.1239 v 6.2742 h 0.1253 v -6.2742 z m 0.43,0 v 6.2742 h 0.1256 v -6.2742 z m 0.4394,0 v 6.2742 h 0.1252 v -6.2742 z m 2.9936,0 v 3.7392 l -2.429,-3.7392 h -0.1256 v 6.2742 h 0.1256 v -3.7392 l 2.429,3.7392 h 0.1253 v -6.2742 z m 0.4303,0 v 6.2742 h 0.1253 v -6.2742 z m 0.4391,0 v 6.2742 h 0.1256 v -6.2742 z m 0.5647,0 h -0.1256 v 6.2742 h 0.1256 z m -1.4341,3.9708 v 0.5363 l -2.429,-3.7392 v -0.5349 z m 0,0.7676 v 0.5363 l -2.429,-3.736 v -0.5364 z m 0,0.7679 v 0.5349 l -2.429,-3.7406 v -0.5349 z m 4.5967,-5.5049 h -0.1315 l -2.3485,6.2714 h 0.1315 z m 0.4496,0 h -0.1316 l -2.3482,6.2714 h 0.1313 z m 0.4481,0 h -0.1315 l -2.3482,6.2714 h 0.1312 z m 0.3838,0.1763 2.2887,6.0951 h 0.1316 l -2.3545,-6.2714 h -0.1315 l -2.3483,6.2714 h 0.1316 l 0.3061,-0.8158 h 2.6144 l 0.303,0.8158 h 0.1316 l -1.673,-4.4906 0.1553,-0.4153 1.836,4.9059 h 0.1312 l -1.9,-5.0851 0.1553,-0.4169 2.0616,5.502 h 0.1313 l -2.1271,-5.6752 z m -0.6647,1.7762 0.7963,2.1439 h -1.5985 z m 0.9502,2.556 h -1.9077 l 0.1091,-0.2897 h 1.6894 z m -1.9525,0.1225 h 1.9973 l 0.1091,0.29 h -2.2156 z m 2.2603,0.7021 h -2.5248 l 0.1091,-0.2897 h 2.3066 z m 2.5186,-5.3345 v 6.2742 h 0.1253 v -6.2742 z m 0.43,0 v 6.2742 h 0.1256 v -6.2742 z m 0.4394,0 v 6.2742 h 0.1253 v -6.2742 z m 2.9937,0 v 3.7392 l -2.429,-3.7392 h -0.1256 v 6.2742 h 0.1256 v -3.7392 l 2.429,3.7392 h 0.1253 v -6.2742 z m 0.4303,0 v 6.2742 h 0.1253 v -6.2742 z m 0.439,0 v 6.2742 h 0.1256 v -6.2742 z m 0.5647,0 h -0.1256 v 6.2742 h 0.1256 z m -1.434,3.9708 v 0.5363 l -2.429,-3.7392 v -0.5349 z m 0,0.7676 v 0.5363 l -2.429,-3.736 v -0.5364 z m 0,0.7679 v 0.5349 l -2.429,-3.7406 v -0.5349 z m 6.8255,-5.5049 h -4.6519 v 0.1225 h 4.6519 z m -4.6519,0.4125 v 0.1224 h 4.6519 V 265.72 Z m 0,0.4121 v 0.1225 h 4.6519 v -0.1225 z m 0,0.4125 v 0.1224 h 1.6089 v 4.9133 h 0.1253 v -4.9133 h 0.3138 v 4.9133 h 0.1256 v -4.9133 h 0.3135 v 4.9133 h 0.1256 v -4.9133 h 0.3047 v 4.9133 h 0.1256 v -4.9133 h 1.6089 v -0.1224 z"/>
    </g>
  </g>
</svg>