<svg width="863" height="693" viewBox="0 0 863 693" fill="none" xmlns="http://www.w3.org/2000/svg">
<g clip-path="url(#clip0_112_110808)">
<path d="M766.206 493.207H454.231C448.656 493.207 444.117 488.49 444.117 482.697V10.5098C444.117 4.71685 448.656 0 454.231 0H766.206C771.781 0 776.32 4.71685 776.32 10.5098V482.679C776.32 488.49 771.781 493.207 766.206 493.207ZM454.231 0.44837C448.898 0.44837 444.548 4.96794 444.548 10.5098V482.679C444.548 488.221 448.898 492.74 454.231 492.74H766.206C771.539 492.74 775.889 488.221 775.889 482.679V10.5098C775.889 4.96794 771.539 0.44837 766.206 0.44837H454.231Z" fill="#F0F0F0"/>
<path d="M406.456 493.207H94.4984C88.9234 493.207 84.384 488.49 84.384 482.697V10.5098C84.384 4.71685 88.9234 0 94.4984 0H406.473C412.048 0 416.587 4.71685 416.587 10.5098V482.679C416.57 488.49 412.048 493.207 406.456 493.207ZM94.4984 0.44837C89.1651 0.44837 84.8155 4.96794 84.8155 10.5098V482.679C84.8155 488.221 89.1651 492.74 94.4984 492.74H406.473C411.806 492.74 416.156 488.221 416.156 482.679V10.5098C416.156 4.96794 411.806 0.44837 406.473 0.44837H94.4984Z" fill="#F0F0F0"/>
<path d="M863 602.734H0V603.183H863V602.734Z" fill="#E0E0E0"/>
<path d="M810.547 389.687H482.607C482.607 395.462 487.112 400.125 492.652 400.125H800.484C806.042 400.125 810.547 395.462 810.547 389.687Z" fill="#E0E0E0"/>
<path d="M746.15 488.472H549.99V498.139H746.15V488.472Z" fill="#E0E0E0"/>
<path d="M739.194 602.86L765.93 400.125H756.54L729.804 602.86H739.194Z" fill="#E6E6E6"/>
<path d="M761.183 602.86L733.999 400.125H743.388L770.573 602.86H761.183Z" fill="#E6E6E6"/>
<path d="M534.974 602.86L562.849 400.125H553.459L525.584 602.86H534.974Z" fill="#E6E6E6"/>
<path d="M556.963 602.86L530.21 400.125H539.599L566.352 602.86H556.963Z" fill="#E6E6E6"/>
<path d="M821.541 372.918H471.595V389.741H821.541V372.918Z" fill="#E6E6E6"/>
<path d="M597.731 372.99H749.584L751.241 369.116C752.277 366.677 749.567 364.255 745.822 364.255H605.688C603.168 364.255 600.959 365.385 600.268 367.017L597.731 372.99Z" fill="#E0E0E0"/>
<path d="M791.216 263.139L771.781 348.563C771.263 350.84 769.313 352.454 767.052 352.454H647.302C644.16 352.454 641.848 349.423 642.572 346.249L662.007 260.826C662.525 258.548 664.475 256.934 666.736 256.934H786.486C789.628 256.934 791.941 259.965 791.216 263.139Z" fill="#F0F0F0"/>
<path d="M733.032 308.03C732.463 313.41 727.802 317.768 722.624 317.768C717.446 317.768 713.718 313.41 714.288 308.03C714.857 302.649 719.517 298.291 724.695 298.291C729.873 298.291 733.602 302.649 733.032 308.03Z" fill="#E0E0E0"/>
<path d="M671.483 256.934L650.788 352.454H647.302C644.16 352.454 641.848 349.423 642.572 346.249L662.007 260.826C662.525 258.548 664.475 256.934 666.736 256.934H671.483Z" fill="#E0E0E0"/>
<path d="M706.175 352.454L702.102 372.739H714.098L718.171 352.454H706.175Z" fill="#E0E0E0"/>
<path d="M684.583 369.313L687.034 365.726C687.915 364.453 689.33 363.682 690.849 363.682H723.746C725.49 363.682 727.078 364.686 727.889 366.282L729.546 369.582C730.322 371.124 729.252 372.972 727.578 372.972H686.396C684.583 372.972 683.531 370.837 684.583 369.313Z" fill="#E0E0E0"/>
<path d="M635.686 98.0136L634.702 96.3815L692.506 58.5391L748.877 97.2244L747.841 98.8386L692.471 60.8348L635.686 98.0136Z" fill="#F0F0F0"/>
<path d="M750.12 96.4712H633.718V172.12H750.12V96.4712Z" fill="#E0E0E0"/>
<path d="M746.885 168.76V99.8184L636.938 99.8184V168.76H746.885Z" fill="white"/>
<path d="M652.567 121.436H645.541V128.736H652.567V121.436Z" fill="#F0F0F0"/>
<path d="M663.389 121.436H656.363V128.736H663.389V121.436Z" fill="#F0F0F0"/>
<path d="M674.228 121.436H667.203V128.736H674.228V121.436Z" fill="#F0F0F0"/>
<path d="M685.05 121.436H678.025V128.736H685.05V121.436Z" fill="#F0F0F0"/>
<path d="M695.889 121.436H688.864V128.736H695.889V121.436Z" fill="#F0F0F0"/>
<path d="M706.711 121.436H699.686V128.736H706.711V121.436Z" fill="#F0F0F0"/>
<path d="M717.551 121.436H710.525V128.736H717.551V121.436Z" fill="#F0F0F0"/>
<path d="M728.373 121.436H721.347V128.736H728.373V121.436Z" fill="#F0F0F0"/>
<path d="M739.195 121.436H732.169V128.736H739.195V121.436Z" fill="#F0F0F0"/>
<path d="M652.567 131.48H645.541V138.779H652.567V131.48Z" fill="#F0F0F0"/>
<path d="M663.389 131.48H656.363V138.779H663.389V131.48Z" fill="#F0F0F0"/>
<path d="M674.228 131.48H667.203V138.779H674.228V131.48Z" fill="#F0F0F0"/>
<path d="M685.05 131.48H678.025V138.779H685.05V131.48Z" fill="#F0F0F0"/>
<path d="M695.889 131.48H688.864V138.779H695.889V131.48Z" fill="#F0F0F0"/>
<path d="M706.711 131.48H699.686V138.779H706.711V131.48Z" fill="#F0F0F0"/>
<path d="M717.551 131.48H710.525V138.779H717.551V131.48Z" fill="#F0F0F0"/>
<path d="M728.373 131.48H721.347V138.779H728.373V131.48Z" fill="#F0F0F0"/>
<path d="M739.195 131.48H732.169V138.779H739.195V131.48Z" fill="#F0F0F0"/>
<path d="M652.567 141.541H645.541V148.841H652.567V141.541Z" fill="#F0F0F0"/>
<path d="M663.389 141.541H656.363V148.841H663.389V141.541Z" fill="#F0F0F0"/>
<path d="M674.228 141.541H667.203V148.841H674.228V141.541Z" fill="#F0F0F0"/>
<path d="M685.05 141.541H678.025V148.841H685.05V141.541Z" fill="#F0F0F0"/>
<path d="M695.889 141.541H688.864V148.841H695.889V141.541Z" fill="#F0F0F0"/>
<path d="M706.711 141.541H699.686V148.841H706.711V141.541Z" fill="#F0F0F0"/>
<path d="M717.551 141.541H710.525V148.841H717.551V141.541Z" fill="#F0F0F0"/>
<path d="M728.373 141.541H721.347V148.841H728.373V141.541Z" fill="#F0F0F0"/>
<path d="M739.195 141.541H732.169V148.841H739.195V141.541Z" fill="#F0F0F0"/>
<path d="M652.567 152.338H645.541V159.637H652.567V152.338Z" fill="#F0F0F0"/>
<path d="M663.389 152.338H656.363V159.637H663.389V152.338Z" fill="#F0F0F0"/>
<path d="M674.228 152.338H667.203V159.637H674.228V152.338Z" fill="#F0F0F0"/>
<path d="M685.05 152.338H678.025V159.637H685.05V152.338Z" fill="#F0F0F0"/>
<path d="M723.626 106.568H661.127V112.881H723.626V106.568Z" fill="#E0E0E0"/>
<path d="M696.2 59.2206C696.2 61.2473 694.612 62.8793 692.679 62.8793C690.728 62.8793 689.157 61.2293 689.157 59.2206C689.157 57.194 690.745 55.562 692.679 55.562C694.629 55.562 696.2 57.194 696.2 59.2206Z" fill="#E0E0E0"/>
<path d="M590.913 21.988H469.541V328.404H590.913V21.988Z" fill="#F0F0F0"/>
<path d="M583.491 29.7H476.928V320.728H583.491V29.7Z" fill="#FAFAFA"/>
<path d="M583.491 42.1647V64.1348L476.928 174.882V152.894L583.491 42.1647Z" fill="white"/>
<path d="M583.491 118.154V149.146L476.928 259.875V228.866L583.491 118.154Z" fill="white"/>
<path d="M533.887 21.988H526.551V328.404H533.887V21.988Z" fill="#F0F0F0"/>
<path d="M377.563 21.988H256.19V328.404H377.563V21.988Z" fill="#F0F0F0"/>
<path d="M370.158 29.7H263.595V320.728H370.158V29.7Z" fill="#FAFAFA"/>
<path d="M370.158 42.1647V64.1348L263.595 174.882V152.894L370.158 42.1647Z" fill="white"/>
<path d="M370.158 118.154V149.146L263.595 259.875V228.866L370.158 118.154Z" fill="white"/>
<path d="M320.554 21.988H313.217V328.404H320.554V21.988Z" fill="#F0F0F0"/>
<path d="M294.024 561.807C294.024 561.807 279.353 565.179 281.528 554.544C283.703 543.908 283.547 539.98 277.593 535.156C271.638 530.332 265.631 527.928 270.188 520.288C274.762 512.63 266.098 506.693 261.61 502.568C257.14 498.443 262.179 495.341 263.37 487.557C264.561 479.773 256.501 480.939 255.862 471.129C255.224 461.318 264.82 449.858 256.57 436.353C256.57 436.353 267.651 442.326 271.276 452.799C274.917 463.273 271.983 471.38 278.525 475.361C285.066 479.343 289.157 486.23 286.948 493.314C284.721 500.38 287.88 504.147 293.247 509.294C298.615 514.459 297.183 516.504 296.51 522.817C295.836 529.13 297.183 527.641 303.327 536.25C309.472 544.859 309.627 558.973 294.024 561.807Z" fill="#F0F0F0"/>
<path d="M296.113 561.323C296.078 561.269 296.061 561.215 296.044 561.161L266.684 468.582C266.564 468.188 266.771 467.757 267.15 467.632H267.168C267.547 467.506 267.962 467.721 268.082 468.116L297.442 560.677C297.459 560.749 297.476 560.821 297.476 560.91L296.113 561.323Z" fill="#E0E0E0"/>
<path d="M320.484 561.61C320.484 561.61 335.069 564.964 332.911 554.4C330.736 543.818 330.909 539.927 336.829 535.12C342.766 530.314 348.721 527.928 344.182 520.324C339.642 512.72 348.255 506.801 352.708 502.694C357.161 498.605 352.139 495.502 350.948 487.754C349.774 480.007 357.783 481.172 358.421 471.416C359.043 461.659 349.515 450.253 357.714 436.82C357.714 436.82 346.702 442.756 343.077 453.176C339.453 463.596 342.387 471.649 335.88 475.613C329.373 479.576 325.299 486.427 327.509 493.476C329.718 500.506 326.577 504.236 321.243 509.366C315.91 514.495 317.325 516.54 317.998 522.817C318.654 529.094 317.325 527.605 311.215 536.178C305.122 544.751 304.967 558.794 320.484 561.61Z" fill="#F0F0F0"/>
<path d="M317.066 560.731C317.066 560.659 317.084 560.587 317.101 560.498L346.288 468.421C346.408 468.026 346.823 467.811 347.185 467.936H347.202C347.582 468.062 347.789 468.492 347.668 468.887L318.464 560.964C318.447 561.018 318.413 561.072 318.395 561.126L317.066 560.731Z" fill="#E0E0E0"/>
<path d="M304.294 559.691C304.294 559.691 287.5 558.238 293.23 547.603C298.961 536.967 300.048 532.717 295.198 525.471C290.365 518.243 284.687 513.616 292.022 506.98C299.358 500.362 291.988 491.001 288.501 485.046C285.015 479.092 291.435 477.514 295.181 469.568C298.943 461.641 289.934 460.099 292.385 449.374C294.836 438.649 308.782 429.682 304.259 412.374C304.259 412.374 314.219 422.579 314.754 435.062C315.306 447.545 309.558 455.203 315.306 461.731C321.036 468.259 323.228 477.047 318.585 483.863C313.942 490.678 316.134 495.771 320.225 503.16C324.316 510.531 322.141 512.235 319.414 518.764C316.687 525.292 318.603 524.162 322.417 535.497C326.249 546.867 321.916 562.04 304.294 559.691Z" fill="#F5F5F5"/>
<path d="M306.676 559.906C306.659 559.834 306.641 559.78 306.641 559.709L304.794 450.432C304.794 449.966 305.14 449.571 305.588 449.571H305.606C306.055 449.571 306.417 449.948 306.417 450.414L308.264 559.691C308.264 559.78 308.247 559.87 308.23 559.942L306.676 559.906Z" fill="#E0E0E0"/>
<path d="M350.016 551.243H267.893C265.528 551.243 263.906 553.701 264.734 555.996L265.942 559.35L266.702 561.466L268.911 567.546L269.688 569.663L271.949 575.904L272.708 578.02L281.735 602.949H336.139L345.166 578.02L345.925 575.904L348.186 569.663L348.963 567.546L351.172 561.466L351.932 559.35L353.14 555.996C354.003 553.701 352.363 551.243 350.016 551.243Z" fill="#E6E6E6"/>
<path d="M153.839 97.2783C170.187 97.2783 183.44 83.5074 183.44 66.5201C183.44 49.5329 170.187 35.762 153.839 35.762C137.491 35.762 124.238 49.5329 124.238 66.5201C124.238 83.5074 137.491 97.2783 153.839 97.2783Z" fill="#E0E0E0"/>
<path d="M180.731 71.2089C183.224 55.7749 173.203 41.1636 158.35 38.5738C143.496 35.984 129.434 46.3963 126.942 61.8304C124.449 77.2645 134.469 91.8757 149.322 94.4655C164.176 97.0553 178.238 86.643 180.731 71.2089Z" fill="#FAFAFA"/>
<path d="M153.908 40.7657H152.889V46.6842H153.908V40.7657Z" fill="#E0E0E0"/>
<path d="M153.908 86.2304H152.889V92.1489H153.908V86.2304Z" fill="#E0E0E0"/>
<path d="M134.37 65.9103H128.673V66.9684H134.37V65.9103Z" fill="#E0E0E0"/>
<path d="M178.124 65.9103H172.427V66.9684H178.124V65.9103Z" fill="#E0E0E0"/>
<path d="M170.519 47.8962L166.492 52.0818L167.212 52.8299L171.24 48.6444L170.519 47.8962Z" fill="#E0E0E0"/>
<path d="M139.582 80.0565L135.554 84.2421L136.274 84.9902L140.302 80.8046L139.582 80.0565Z" fill="#E0E0E0"/>
<path d="M136.282 47.906L135.562 48.6542L139.589 52.8392L140.31 52.091L136.282 47.906Z" fill="#E0E0E0"/>
<path d="M167.206 80.0506L166.486 80.7989L170.514 84.9833L171.234 84.2349L167.206 80.0506Z" fill="#E0E0E0"/>
<path d="M153.214 65.7379L152.891 66.5891L162.528 70.5318L162.851 69.6807L153.214 65.7379Z" fill="#E0E0E0"/>
<path d="M153.839 66.8967H137.925V66H152.958V53.1587H153.839V66.8967Z" fill="#E0E0E0"/>
<path d="M805.956 684.409C805.956 689.144 638.309 693 431.5 693C224.691 693 57.0442 689.162 57.0442 684.409C57.0442 679.674 224.691 675.818 431.5 675.818C638.309 675.818 805.956 679.674 805.956 684.409Z" fill="#F5F5F5"/>
<path d="M364.299 68.5431C375.098 57.3235 375.097 39.1328 364.299 27.9132C353.5 16.6935 335.992 16.6935 325.193 27.9132C314.394 39.1328 314.394 57.3235 325.193 68.5431C335.992 79.7628 353.5 79.7628 364.299 68.5431Z" fill="#407BFF"/>
<path d="M358.611 48.2266C358.611 49.5717 357.575 50.6478 356.281 50.6478H347.064V60.225C347.064 61.5521 346.028 62.6282 344.751 62.6282C343.457 62.6282 342.421 61.5521 342.421 60.225V50.6478H333.204C331.927 50.6478 330.891 49.5717 330.891 48.2445V48.2266C330.891 46.8994 331.927 45.8233 333.204 45.8233H342.421V36.2462C342.421 34.919 343.457 33.8429 344.751 33.8429C346.028 33.8429 347.064 34.919 347.064 36.2462V45.8233H356.281C357.575 45.8233 358.611 46.8994 358.611 48.2266Z" fill="white"/>
<path d="M344.751 84.2576C344.303 84.2576 343.923 83.8809 343.923 83.3967V81.675C343.923 81.2087 344.285 80.8141 344.751 80.8141C345.217 80.8141 345.58 81.1907 345.58 81.675V83.3967C345.58 83.863 345.2 84.2576 344.751 84.2576ZM345.58 124.503V121.078C345.58 120.611 345.217 120.217 344.751 120.217C344.285 120.217 343.923 120.593 343.923 121.078V124.503C343.923 124.97 344.285 125.364 344.751 125.364C345.217 125.364 345.58 124.97 345.58 124.503ZM345.58 114.227V110.801C345.58 110.335 345.217 109.94 344.751 109.94C344.285 109.94 343.923 110.317 343.923 110.801V114.227C343.923 114.693 344.285 115.087 344.751 115.087C345.217 115.087 345.58 114.693 345.58 114.227ZM345.58 103.95V100.524C345.58 100.058 345.217 99.6635 344.751 99.6635C344.285 99.6635 343.923 100.04 343.923 100.524V103.95C343.923 104.416 344.285 104.811 344.751 104.811C345.217 104.811 345.58 104.416 345.58 103.95ZM345.58 93.6733V90.2478C345.58 89.7815 345.217 89.3869 344.751 89.3869C344.285 89.3869 343.923 89.7635 343.923 90.2478V93.6733C343.923 94.1396 344.285 94.5342 344.751 94.5342C345.217 94.5342 345.58 94.1396 345.58 93.6733ZM347.219 133.076C347.219 132.61 346.857 132.215 346.391 132.215H345.562V131.354C345.562 130.888 345.2 130.493 344.734 130.493C344.268 130.493 343.906 130.87 343.906 131.354V133.076C343.906 133.542 344.268 133.937 344.734 133.937H346.391C346.857 133.919 347.219 133.542 347.219 133.076ZM384.708 133.076C384.708 132.61 384.346 132.215 383.88 132.215H380.756C380.307 132.215 379.927 132.592 379.927 133.076C379.927 133.542 380.29 133.937 380.756 133.937H383.88C384.346 133.919 384.708 133.542 384.708 133.076ZM375.336 133.076C375.336 132.61 374.974 132.215 374.507 132.215H371.383C370.935 132.215 370.555 132.592 370.555 133.076C370.555 133.542 370.917 133.937 371.383 133.937H374.507C374.974 133.919 375.336 133.542 375.336 133.076ZM365.964 133.076C365.964 132.61 365.601 132.215 365.135 132.215H362.011C361.563 132.215 361.183 132.592 361.183 133.076C361.183 133.542 361.545 133.937 362.011 133.937H365.135C365.601 133.919 365.964 133.542 365.964 133.076ZM356.592 133.076C356.592 132.61 356.229 132.215 355.763 132.215H352.639C352.19 132.215 351.811 132.592 351.811 133.076C351.811 133.542 352.173 133.937 352.639 133.937H355.763C356.229 133.919 356.592 133.542 356.592 133.076ZM392.613 133.076C392.613 132.61 392.251 132.215 391.785 132.215H390.128C389.679 132.215 389.299 132.592 389.299 133.076C389.299 133.542 389.662 133.937 390.128 133.937H391.785C392.251 133.919 392.613 133.542 392.613 133.076Z" fill="#407BFF"/>
<path d="M703.552 641.796L705.295 670.617L693.472 671.604L685.515 643.249L703.552 641.796Z" fill="#CE7A63"/>
<path d="M696.217 668.716C696.217 668.716 694.404 666.385 692.109 667.192C689.813 667.981 686.793 671.891 686.793 671.891C686.793 671.891 674.331 676.052 670.965 676.267C667.599 676.482 665.39 678.724 665.114 685.234H707.522C707.522 685.234 707.522 669.954 706.089 667.299C704.847 665.004 702.344 667.963 702.344 667.963L696.217 668.716Z" fill="#263238"/>
<path d="M666.081 683.226C668.532 683.19 670.983 683.172 673.433 683.136C684.152 683.01 694.888 682.903 705.606 682.795C706.02 682.777 706.02 682.132 705.606 682.132C704.881 682.149 704.156 682.149 703.431 682.149C703.431 682.114 703.431 682.114 703.414 682.078C701.861 678.545 703.656 674.922 706.728 673.11C707.073 672.913 706.763 672.339 706.417 672.554C703.086 674.509 701.257 678.365 702.775 682.167L698.236 682.203C687.518 682.329 676.799 682.436 666.081 682.562C665.666 682.562 665.666 683.226 666.081 683.226Z" fill="white"/>
<path d="M688.243 674.563C686.828 672.483 684.428 671.909 682.408 673.469C682.08 673.72 681.77 673.146 682.098 672.895C684.411 671.102 687.19 671.873 688.795 674.222C689.02 674.581 688.485 674.904 688.243 674.563Z" fill="white"/>
<path d="M684.722 675.675C683.307 673.595 680.907 673.021 678.887 674.581C678.559 674.832 678.249 674.258 678.577 674.007C680.89 672.214 683.669 672.985 685.274 675.334C685.516 675.675 684.964 676.016 684.722 675.675Z" fill="white"/>
<path d="M681.097 676.769C679.682 674.689 677.283 674.115 675.263 675.675C674.935 675.926 674.624 675.352 674.952 675.101C677.265 673.308 680.045 674.079 681.65 676.428C681.874 676.787 681.339 677.11 681.097 676.769Z" fill="white"/>
<path d="M612.885 641.491L611.246 670.599L599.302 671.604L594.676 642.962L612.885 641.491Z" fill="#CE7A63"/>
<path d="M602.046 668.716C602.046 668.716 600.234 666.385 597.938 667.192C595.643 667.981 592.622 671.891 592.622 671.891C592.622 671.891 580.16 676.052 576.795 676.267C573.429 676.482 570.478 678.455 569.218 685.234H610.037C610.037 685.234 611.643 669.918 611.901 667.299C612.143 664.681 608.156 667.963 608.156 667.963L602.046 668.716Z" fill="#263238"/>
<path d="M570.443 683.226C572.894 683.19 575.345 683.172 577.796 683.136C588.514 683.01 599.25 682.903 609.968 682.795C610.383 682.777 610.383 682.132 609.968 682.132C609.243 682.149 608.519 682.149 607.794 682.149C607.794 682.114 607.794 682.114 607.776 682.078C606.223 678.545 608.018 674.922 611.09 673.11C611.435 672.913 611.125 672.339 610.78 672.554C607.448 674.509 605.619 678.365 607.138 682.167L602.598 682.203C591.88 682.329 581.161 682.436 570.443 682.562C570.029 682.562 570.029 683.226 570.443 683.226Z" fill="white"/>
<path d="M594.09 674.563C592.674 672.483 590.275 671.909 588.255 673.469C587.927 673.72 587.617 673.146 587.945 672.895C590.258 671.102 593.037 671.873 594.642 674.222C594.867 674.581 594.314 674.904 594.09 674.563Z" fill="white"/>
<path d="M590.569 675.675C589.153 673.595 586.754 673.021 584.734 674.581C584.406 674.832 584.096 674.258 584.424 674.007C586.737 672.214 589.516 672.985 591.121 675.334C591.346 675.675 590.793 676.016 590.569 675.675Z" fill="white"/>
<path d="M586.927 676.769C585.512 674.689 583.112 674.115 581.093 675.675C580.765 675.926 580.454 675.352 580.782 675.101C583.095 673.308 585.874 674.079 587.479 676.428C587.721 676.787 587.169 677.11 586.927 676.769Z" fill="white"/>
<path d="M585.062 338.089C585.062 338.089 578.089 435.385 578.555 478.123C579.039 522.566 592.985 651.929 592.985 651.929H615.837C615.837 651.929 620.048 524.843 622.102 481.19C624.329 433.591 638.016 330.287 638.016 330.287L585.062 338.089Z" fill="#263238"/>
<path opacity="0.2" d="M626.452 428.247C628.23 410.778 630.301 392.754 632.166 376.971L629.49 360.328C629.49 360.328 620.531 386.315 626.452 428.247Z" fill="black"/>
<path d="M617.563 644.738C617.511 647.302 617.339 652.396 617.339 652.396H591L590.206 644.738H617.563Z" fill="#407BFF"/>
<path d="M624.052 330.287C624.052 330.287 630.991 437.465 638.447 477.585C646.611 521.526 683.669 651.929 683.669 651.929H708.368C708.368 651.929 692.506 525.4 688.277 481.908C683.686 434.685 681.701 339.362 681.701 339.362L624.052 330.287Z" fill="#263238"/>
<path d="M709.472 644.558C709.714 647.177 710.094 652.414 710.094 652.414H681.166L679.423 644.558H709.472Z" fill="#407BFF"/>
<path d="M685.912 348.473C636.532 351.97 599.405 352.239 579.729 344.527C578.365 254.172 581.403 197.964 585.494 184.226C586.598 180.532 589.015 177.447 592.329 175.689C595.729 173.86 600.924 171.743 607.897 170.667C618.236 169.071 635.358 168.605 647.216 168.641C653.723 168.659 660.402 169.179 665.908 169.753C672.743 170.488 677.213 176.837 676.92 183.975C676.333 197.713 676.281 211.612 676.592 225.243C676.782 233.098 677.075 240.846 677.455 248.433C679.923 296.874 685.826 337.909 685.912 348.473Z" fill="#407BFF"/>
<path opacity="0.2" d="M677.455 248.433L656.242 199.991L676.592 225.243C676.782 233.098 677.075 240.846 677.455 248.433Z" fill="black"/>
<path d="M615.026 98.3185C612.419 95.3772 603.669 95.1261 599.509 100.793C595.056 106.837 589.412 118.047 585.822 115.087C585.822 115.087 587.306 120.629 593.399 121.06C593.399 121.06 589.757 125.203 585.062 123.66C585.062 123.66 587.151 131.318 595.902 132.646C603.945 133.865 615.112 109.958 616.89 106.03C616.907 101.708 616.579 101.87 615.026 98.3185Z" fill="#263238"/>
<path d="M620.031 99.3587C627.159 98.5337 634.409 100.632 639.845 105.492C643.401 108.667 646.163 112.881 644.937 117.903C642.072 129.597 634.478 148.464 634.478 148.464L600.406 121.239C600.406 121.239 600.234 109.886 605.722 104.255C608.57 101.314 614.749 99.9684 620.031 99.3587Z" fill="#263238"/>
<path d="M613.766 98.731C613.766 98.731 625.502 90.0326 641.123 102.085C656.743 114.155 641.054 136.017 641.054 136.017C641.054 136.017 636.048 145.684 640.467 148.052C640.467 148.052 637.671 149.199 635.6 148.948C635.6 148.948 637.118 151.872 639.052 151.621C639.052 151.621 636.359 152.751 631.543 150.509C626.745 148.285 613.766 98.731 613.766 98.731Z" fill="#263238"/>
<path d="M614.525 158.992C614.542 159.064 614.542 159.099 614.56 159.153L615.492 166.237C615.474 167.654 615.319 169.053 615.06 170.398C614.836 171.528 614.542 172.622 614.18 173.662C612.488 175.546 611.246 180.137 616.389 180.818C622.896 181.697 635.996 173.34 636.79 170.416C634.875 160.785 633.649 149.666 635.185 140.896L626.762 148.285L614.525 158.992Z" fill="#CE7A63"/>
<path opacity="0.2" d="M614.542 159.153L615.474 166.237C619.772 164.821 624.536 161.216 626.037 156.84C627.108 153.683 626.055 150.455 624.812 150.132L614.542 159.153Z" fill="black"/>
<path d="M599.785 142.671C599.992 144.214 600.251 145.738 600.545 147.245C603.134 160.57 618.184 163.673 628.747 155.459C628.765 155.441 628.765 155.423 628.782 155.423C629.714 154.687 630.629 153.88 631.474 152.966C638.447 145.523 637.688 139.03 638.482 124.593C639.276 110.173 625.623 99.3587 612.247 105.08C599.923 110.353 597.679 127.265 599.785 142.671Z" fill="#CE7A63"/>
<path d="M616.424 130.924C616.441 132.09 615.854 133.04 615.129 133.058C614.404 133.076 613.8 132.126 613.783 130.978C613.766 129.812 614.352 128.861 615.077 128.843C615.802 128.826 616.407 129.776 616.424 130.924Z" fill="#263238"/>
<path d="M604.221 131.049C604.238 132.215 603.651 133.166 602.926 133.184C602.201 133.202 601.597 132.251 601.58 131.103C601.563 129.937 602.15 128.987 602.875 128.969C603.6 128.951 604.204 129.902 604.221 131.049Z" fill="#263238"/>
<path d="M612.005 146.796C611.763 146.76 611.625 146.742 611.625 146.742C611.401 146.689 611.246 146.455 611.297 146.222C611.349 145.989 611.574 145.828 611.798 145.882C612.022 145.935 617.563 147.065 619.117 140.573C619.169 140.34 619.41 140.178 619.635 140.25C619.859 140.304 619.997 140.555 619.946 140.788C618.444 147.065 613.438 146.958 612.005 146.796Z" fill="#263238"/>
<path d="M638.465 125.956C638.465 125.956 635.013 128.628 634.288 132.287C634.081 133.381 633.338 133.507 633.338 133.507L628.299 133.937C628.299 133.937 631.371 120.02 627.763 119.733C624.173 119.446 628.816 113.617 626.78 112.415C621.964 109.599 608.173 107.645 601.804 115.608C601.804 115.608 604.255 107.268 611.366 103.52C618.478 99.7891 631.785 100.542 636.307 107.967C640.829 115.374 638.465 125.956 638.465 125.956Z" fill="#263238"/>
<path d="M644.488 134.188C643.487 137.936 640.898 140.86 638.189 142.384C634.115 144.68 631.043 141.147 631.319 136.609C631.561 132.502 633.977 126.368 638.482 125.956C642.901 125.543 645.628 129.902 644.488 134.188Z" fill="#CE7A63"/>
<path d="M600.89 126.243C601.08 126.243 601.269 126.135 601.373 125.956C601.822 125.113 602.391 124.593 603.082 124.396C604.204 124.073 605.309 124.736 605.326 124.736C605.585 124.898 605.93 124.808 606.085 124.539C606.241 124.27 606.155 123.911 605.896 123.75C605.844 123.714 604.377 122.835 602.806 123.284C601.822 123.553 601.028 124.27 600.424 125.382C600.268 125.651 600.372 126.01 600.631 126.171C600.7 126.207 600.803 126.243 600.89 126.243Z" fill="#263238"/>
<path d="M622.068 125.777C622.155 125.777 622.224 125.741 622.31 125.705C622.569 125.543 622.672 125.203 622.517 124.934C622.483 124.862 621.637 123.373 620.049 122.943C619.065 122.674 618.029 122.871 616.976 123.553C616.717 123.714 616.631 124.073 616.786 124.342C616.941 124.611 617.287 124.701 617.546 124.539C618.34 124.037 619.082 123.876 619.755 124.073C620.894 124.378 621.55 125.526 621.55 125.526C621.654 125.687 621.861 125.795 622.068 125.777Z" fill="#263238"/>
<path d="M609.727 129.937C609.727 129.937 608.933 133.65 606.102 136.143C603.271 138.636 608.881 140.806 608.881 140.806L609.727 129.937Z" fill="#BA4D3C"/>
<path d="M633.77 128.754C626.728 128.018 622.344 130.619 621.239 131.372C620.911 128.18 618.909 125.705 616.458 125.705C613.886 125.705 611.798 128.467 611.643 131.91C609.123 130.35 607.379 131.283 606.672 131.821C606.499 128.413 604.411 125.705 601.856 125.705C599.181 125.705 597.006 128.664 597.006 132.287C597.006 135.91 599.181 138.869 601.856 138.869C604.497 138.869 606.654 135.964 606.689 132.395C606.913 132.161 608.674 130.493 611.608 132.43C611.66 135.999 613.8 138.869 616.441 138.869C619.116 138.869 621.291 135.91 621.291 132.287C621.291 132.143 621.274 132.018 621.256 131.892C621.757 131.516 626.158 128.395 633.718 129.202C633.839 129.22 633.942 129.13 633.96 129.005C633.977 128.861 633.891 128.754 633.77 128.754ZM601.856 138.421C599.422 138.421 597.438 135.677 597.438 132.287C597.438 128.897 599.422 126.153 601.856 126.153C604.29 126.153 606.275 128.897 606.275 132.287C606.275 135.659 604.307 138.421 601.856 138.421ZM616.458 138.421C614.024 138.421 612.04 135.677 612.04 132.287C612.04 128.897 614.024 126.153 616.458 126.153C618.892 126.153 620.877 128.897 620.877 132.287C620.859 135.659 618.892 138.421 616.458 138.421Z" fill="white"/>
<path d="M584.613 187.831L569.804 224.669C567.319 230.767 564.782 236.829 562.21 242.765C560.933 245.724 559.604 248.648 558.275 251.464C556.946 254.279 555.582 257.041 554.288 259.301C553.891 260.036 553.425 260.754 553.148 261.148L553.131 261.166L551.215 262.117L549.11 263.103L544.795 265.058L527.034 272.878C515.107 278.133 503.163 283.549 491.34 289.27L495.517 302.793C508.41 300.246 521.148 297.251 533.852 293.897C540.186 292.158 546.521 290.454 552.889 288.463L557.722 286.939L560.173 286.131L562.779 285.199L563.763 284.822L564.212 284.625L565.99 283.818C566.318 283.657 566.542 283.567 566.922 283.37C567.302 283.136 567.664 282.921 568.009 282.67C568.372 282.437 568.734 282.168 568.941 282.007C569.994 281.164 570.685 280.5 571.306 279.854C572.083 279.029 572.721 278.276 573.274 277.577C574.326 276.267 575.086 275.137 575.863 274.008C577.174 272.035 578.313 270.134 579.384 268.286C580.178 266.941 580.902 265.632 581.627 264.323C583.319 261.166 584.907 258.046 586.443 254.943C589.532 248.72 592.346 242.478 595.107 236.237C600.579 223.718 605.671 211.236 610.313 198.341L584.613 187.831ZM553.942 260.754L553.839 260.826L553.77 260.861L553.942 260.754C553.994 260.7 554.046 260.664 554.098 260.646C554.046 260.682 553.994 260.718 553.942 260.754Z" fill="#407BFF"/>
<path opacity="0.2" d="M583.284 210.375C581.852 221.046 579.401 268.161 579.401 268.161C579.401 268.161 579.401 268.197 579.384 268.286C578.314 270.134 577.174 272.035 575.863 274.008C575.086 275.137 574.327 276.267 573.274 277.577C574.223 254.961 583.284 210.375 583.284 210.375Z" fill="black"/>
<path d="M496.587 298.542C495.914 293.987 494.603 290.777 494.603 290.777C494.603 290.777 491.03 286.795 486.698 286.705C482.365 286.598 478.948 285.324 475.72 285.486C472.493 285.647 475.927 288.445 478.033 289.539C480.139 290.651 482.521 291.906 481.468 293.431C480.415 294.937 466.313 301.555 465.088 303.833C463.863 306.111 466.452 305.77 466.452 305.77C466.452 305.77 463.31 307.277 463.362 309.052C463.414 310.828 465.658 310.487 465.658 310.487C465.658 310.487 463.569 311.581 464.484 313.016C464.967 313.769 468.54 313.177 471.923 312.46C471.233 312.801 470.732 313.231 470.646 313.769C470.335 315.957 474.995 315.24 478.723 314.755C482.452 314.271 486.249 312.514 488.838 309.572C491.427 306.613 497.261 303.098 496.587 298.542ZM477.86 311.168C478.016 311.151 478.137 311.133 478.171 311.151C478.171 311.151 478.05 311.151 477.86 311.168Z" fill="#CE7A63"/>
<path d="M466.262 310.595C469.869 308.891 473.528 307.33 477.222 305.914C477.601 306.918 478.067 307.851 478.585 308.783C478.861 309.232 479.414 308.64 479.172 308.191C477.584 305.393 476.618 302.201 476.29 298.74C476.238 298.184 475.53 298.363 475.582 298.919C475.668 299.78 475.772 300.605 475.945 301.43C475.875 301.394 475.806 301.394 475.737 301.412C472.786 302.291 469.921 303.546 467.159 305.178C466.745 305.429 467.021 306.218 467.453 305.967C470.145 304.371 472.941 303.116 475.824 302.273C475.927 302.237 476.014 302.165 476.048 302.058C476.272 303.116 476.549 304.138 476.911 305.124C473.217 306.541 469.576 308.102 465.951 309.805C465.537 310.039 465.83 310.81 466.262 310.595Z" fill="#BA4D3C"/>
<path d="M480.087 301.932C482.883 298.004 487.112 296.516 491.013 298.022C491.461 298.202 491.72 297.377 491.289 297.197C487.043 295.565 482.538 297.215 479.517 301.448C479.207 301.878 479.794 302.345 480.087 301.932Z" fill="#BA4D3C"/>
<path d="M674.573 175.205C682.995 186.593 691.073 198.215 699.03 209.962C703.017 215.827 706.952 221.746 710.836 227.7C714.788 233.672 718.551 239.573 722.486 245.94L723.229 247.159L724.143 248.72L724.592 249.509L724.713 249.706L725.11 250.477L725.541 251.41C725.679 251.733 725.8 252.055 725.852 252.217C726.146 253.024 726.387 253.921 726.491 254.405L726.681 255.284L726.801 255.965C727.078 257.759 727.129 259.014 727.181 260.234C727.216 261.417 727.216 262.511 727.181 263.552C727.078 267.73 726.767 271.461 726.439 275.209C725.714 282.652 724.73 289.862 723.66 297.054C721.503 311.438 718.793 325.57 715.617 339.739L701.136 337.945C701.136 323.633 701.291 309.285 701.481 295.117C701.567 288.033 701.602 280.966 701.498 274.079C701.446 270.672 701.36 267.246 701.101 264.251C701.032 263.498 700.963 262.816 700.877 262.207C700.791 261.633 700.67 261.113 700.635 261.13C700.635 261.148 700.635 261.166 700.635 261.166L700.67 261.382C700.67 261.435 700.791 261.902 700.929 262.278L701.118 262.78C701.205 262.996 701.308 263.193 701.395 263.408L701.654 263.892L701.585 263.803L701.343 263.462L700.152 261.776C696.268 256.342 691.953 250.639 687.846 244.971C683.669 239.304 679.492 233.636 675.367 227.915C667.099 216.491 658.866 205.012 650.961 193.301L674.573 175.205Z" fill="#407BFF"/>
<path d="M715.306 338.806C712.148 330.287 705.088 332.475 703.017 334.627C703.017 334.627 697.77 340.133 696.717 343.308C695.647 346.464 694.094 349.549 694.646 350.984C694.905 351.647 695.82 350.948 696.717 349.997C696.165 351.647 695.82 352.992 695.889 353.656C695.889 353.656 696.683 362.372 699.945 365.08C703.207 367.807 702.585 359.969 702.585 359.969C702.585 359.969 702.982 367.735 710.87 365.224C713.891 364.273 717.256 354.965 717.792 349.764C719.155 345.37 715.306 338.806 715.306 338.806Z" fill="#CE7A63"/>
<path d="M615.63 167.654C615.63 167.654 608.898 166.883 605.308 171.134C603.876 176.353 607.034 182.558 610.469 188.835L617.908 180.854C618.409 180.854 614.56 174.057 615.63 167.654Z" fill="#407BFF"/>
<path opacity="0.2" d="M615.63 167.654C615.63 167.654 608.898 166.883 605.308 171.134C603.876 176.353 607.034 182.558 610.469 188.835L617.908 180.854C618.409 180.854 614.56 174.057 615.63 167.654Z" fill="black"/>
<path d="M635.634 163.834C632.441 171.474 625.658 176.496 617.908 180.854L622.102 188.835L648.044 168.641C648.044 168.641 640.57 161.808 635.634 163.834Z" fill="#407BFF"/>
<path opacity="0.2" d="M635.634 163.834C632.441 171.474 625.658 176.496 617.908 180.854L622.102 188.835L648.044 168.641C648.044 168.641 640.57 161.808 635.634 163.834Z" fill="black"/>
<path opacity="0.2" d="M617.96 192.368C617.96 193.122 617.373 193.749 616.631 193.749C615.906 193.749 615.302 193.14 615.302 192.368C615.302 191.615 615.889 190.987 616.631 190.987C617.356 190.987 617.96 191.615 617.96 192.368Z" fill="black"/>
<path opacity="0.2" d="M617.96 201.372C617.96 202.125 617.373 202.753 616.631 202.753C615.906 202.753 615.302 202.143 615.302 201.372C615.302 200.618 615.889 199.991 616.631 199.991C617.356 200.009 617.96 200.618 617.96 201.372Z" fill="black"/>
<path opacity="0.2" d="M617.96 210.375C617.96 211.128 617.373 211.756 616.631 211.756C615.906 211.756 615.302 211.146 615.302 210.375C615.302 209.604 615.889 208.994 616.631 208.994C617.356 209.012 617.96 209.622 617.96 210.375Z" fill="black"/>
<path d="M452.73 652.629L456.268 671.245H465.727L467.004 652.629H452.73Z" fill="#FFC3BD"/>
<path d="M464.484 668.878C464.484 668.878 466.279 666.564 468.557 667.353C470.836 668.142 473.822 672.016 473.822 672.016C473.822 672.016 486.163 676.123 489.511 676.356C492.842 676.572 495.759 678.527 497.019 685.234H456.579C456.579 685.234 454.991 670.079 454.749 667.479C454.508 664.878 458.46 668.124 458.46 668.124L464.484 668.878Z" fill="#263238"/>
<path d="M495.811 683.243C493.377 683.225 490.961 683.19 488.527 683.172C477.912 683.064 467.28 682.939 456.665 682.831C456.268 682.831 456.268 682.167 456.665 682.185C457.373 682.203 458.115 682.203 458.823 682.203C458.823 682.185 458.84 682.149 458.84 682.114C460.359 678.616 458.598 675.029 455.543 673.236C455.181 673.039 455.509 672.465 455.854 672.68C459.15 674.617 460.963 678.455 459.461 682.203C460.963 682.221 462.447 682.239 463.949 682.257C474.564 682.365 485.179 682.49 495.811 682.598C496.208 682.598 496.208 683.243 495.811 683.243Z" fill="#407BFF"/>
<path d="M472.389 674.671C473.787 672.608 476.169 672.034 478.172 673.577C478.5 673.828 478.81 673.272 478.482 673.021C476.186 671.245 473.442 672.016 471.854 674.348C471.612 674.671 472.147 674.993 472.389 674.671Z" fill="white"/>
<path d="M475.875 675.765C477.274 673.702 479.656 673.128 481.658 674.671C481.986 674.922 482.297 674.366 481.969 674.115C479.673 672.339 476.928 673.11 475.34 675.442C475.099 675.765 475.634 676.087 475.875 675.765Z" fill="white"/>
<path d="M479.466 676.841C480.864 674.778 483.246 674.204 485.248 675.747C485.576 675.998 485.887 675.442 485.559 675.191C483.263 673.415 480.519 674.186 478.931 676.518C478.689 676.859 479.241 677.182 479.466 676.841Z" fill="white"/>
<path d="M368.018 652.772L369.985 671.245H379.444L382.292 652.772H368.018Z" fill="#FFC3BD"/>
<path d="M378.201 668.878C378.201 668.878 379.996 666.564 382.274 667.353C384.553 668.142 387.539 672.016 387.539 672.016C387.539 672.016 399.88 676.123 403.228 676.356C406.559 676.572 409.476 678.527 410.736 685.234H370.296C370.296 685.234 368.708 670.079 368.466 667.479C368.225 664.878 372.177 668.124 372.177 668.124L378.201 668.878Z" fill="#263238"/>
<path d="M409.528 683.243C407.094 683.225 404.678 683.19 402.244 683.172C391.629 683.064 380.997 682.939 370.382 682.831C369.985 682.831 369.985 682.167 370.382 682.185C371.09 682.203 371.832 682.203 372.54 682.203C372.54 682.185 372.557 682.149 372.557 682.114C374.076 678.616 372.315 675.029 369.26 673.236C368.898 673.039 369.226 672.465 369.571 672.68C372.868 674.617 374.68 678.455 373.178 682.203C374.68 682.221 376.164 682.239 377.666 682.257C388.281 682.365 398.896 682.49 409.528 682.598C409.925 682.598 409.925 683.243 409.528 683.243Z" fill="#407BFF"/>
<path d="M386.106 674.671C387.504 672.608 389.887 672.034 391.889 673.577C392.217 673.828 392.528 673.272 392.2 673.021C389.904 671.245 387.159 672.016 385.571 674.348C385.329 674.671 385.864 674.993 386.106 674.671Z" fill="white"/>
<path d="M389.575 675.765C390.974 673.702 393.356 673.128 395.358 674.671C395.686 674.922 395.997 674.366 395.669 674.115C393.373 672.339 390.628 673.11 389.04 675.442C388.816 675.765 389.351 676.087 389.575 675.765Z" fill="white"/>
<path d="M393.183 676.841C394.581 674.778 396.963 674.204 398.965 675.747C399.293 675.998 399.604 675.442 399.276 675.191C396.98 673.415 394.236 674.186 392.648 676.518C392.406 676.859 392.958 677.182 393.183 676.841Z" fill="white"/>
<path d="M449.571 653.292H470.456C472.268 625.332 477.377 532.699 473.338 486.858C476.238 423.261 466.883 338.824 466.883 338.824H400.691C400.691 338.824 405.541 395.319 427.306 485.943C427.185 557.736 444.048 629.511 449.571 653.292Z" fill="#407BFF"/>
<path opacity="0.2" d="M449.571 653.292H470.456C472.268 625.332 477.377 532.699 473.338 486.858C476.238 423.261 466.883 338.824 466.883 338.824H400.691C400.691 338.824 405.541 395.319 427.306 485.943C427.185 557.736 444.048 629.511 449.571 653.292Z" fill="white"/>
<path opacity="0.2" d="M423.767 470.698C435.729 419.907 425.217 354.068 425.217 354.068L414.896 429.287L423.767 470.698Z" fill="black"/>
<path d="M447.086 652.736L448.622 660.986L472.579 660.879L472.596 652.629L447.086 652.736Z" fill="#263238"/>
<path d="M365.032 654.082H385.916C393.355 625.314 408.32 532.86 410.702 487.019C422.542 423.422 428.203 338.806 428.203 338.806H362.011C362.011 338.806 355.849 395.946 364.911 486.571C363.168 565.591 364.566 629.511 365.032 654.082Z" fill="#407BFF"/>
<path opacity="0.2" d="M365.032 654.082H385.916C393.355 625.314 408.32 532.86 410.702 487.019C422.542 423.422 428.203 338.806 428.203 338.806H362.011C362.011 338.806 355.849 395.946 364.911 486.571C363.168 565.591 364.566 629.511 365.032 654.082Z" fill="white"/>
<path d="M363.219 652.718L363.167 660.897L387.314 660.915L388.574 652.718H363.219Z" fill="#263238"/>
<path d="M475.565 349.19C429.653 367.52 354.866 354.23 354.866 354.23C355.366 341.155 355.832 320.925 356.091 298.883C356.16 292.965 356.212 286.921 356.246 280.841C356.315 269.183 356.315 257.418 356.229 246.316C356.212 245.42 356.212 244.523 356.195 243.644C356.143 238.192 356.056 232.919 355.953 227.933C355.936 227.323 355.936 226.714 355.918 226.104C355.711 216.293 355.366 207.613 354.935 200.672C354.089 187.598 360.941 175.42 373.385 173.25C377.165 172.586 381.256 171.995 385.502 171.528C386.503 171.403 387.539 171.313 388.574 171.205C400.363 170.004 413.308 169.466 425.114 169.824C425.701 169.824 426.305 169.842 426.891 169.86C427.185 169.878 427.53 169.878 427.824 169.896C428.324 169.914 428.859 169.932 429.36 169.968C434.607 170.183 439.612 170.596 444.082 171.205C454.231 172.568 463.241 180.89 463.414 191.543C463.569 201.3 464.484 221.907 465.813 245.151C466.331 253.939 466.9 263.139 467.522 272.25C469.921 308.138 472.976 342.913 475.565 349.19Z" fill="#263238"/>
<path opacity="0.2" d="M381.757 210.375C381.757 210.375 380.773 261.023 384 267.174C387.245 273.326 449.951 291.924 449.951 291.924C418.572 287.495 388.212 282.527 372.143 270.098L381.757 210.375Z" fill="black"/>
<path opacity="0.2" d="M452.108 306.81C415.569 315.796 372.833 304.264 356.091 298.883C356.16 292.965 356.212 286.921 356.246 280.841C381.981 300.623 452.108 306.81 452.108 306.81Z" fill="black"/>
<path d="M421.04 200.834L414.896 271.748L427.202 297.502L436.816 269.362L426.857 200.834H421.04Z" fill="#407BFF"/>
<path d="M422.507 185.571L415.862 195.812L423.681 205.21L431.483 193.122L422.507 185.571Z" fill="#407BFF"/>
<path d="M436.022 100.578C428.842 97.9239 420.868 98.2647 414.119 101.923C409.701 104.309 405.886 107.967 405.972 113.455C406.197 126.243 409.631 147.639 409.631 147.639L451.176 128.126C451.176 128.126 454.197 117.419 449.329 110.586C445.722 105.492 441.321 102.533 436.022 100.578Z" fill="#263238"/>
<path d="M420.505 99.5022C420.505 99.5022 414.896 96.256 409.252 102.3C404.557 107.34 406.611 123.768 406.611 123.768L420.505 99.5022Z" fill="#263238"/>
<path d="M416.328 100.865C416.328 100.865 417.951 91.1087 435.09 94.0141C452.229 96.9195 465.83 111.644 459.565 119.338C453.541 126.763 435.09 114.406 435.09 114.406L416.328 100.865Z" fill="#263238"/>
<path d="M427.789 163.529C427.754 163.601 427.754 163.637 427.72 163.691L425.114 170.775C424.803 172.246 424.63 173.716 424.596 175.169C424.561 176.389 424.613 177.59 424.751 178.756C426.063 181.123 426.27 186.181 420.799 185.589C413.877 184.854 402.158 173.573 402.02 170.362C406.248 160.911 410.253 149.074 410.719 139.64L417.692 149.397L427.789 163.529Z" fill="#FFC3BD"/>
<path d="M422.507 185.571C424.147 181.823 424.13 177.285 424.699 173.232C424.699 173.232 425.01 170.219 425.839 168.712C425.839 168.712 430.585 167.565 433.347 170.165C434.451 178.021 433.571 185.822 431.344 193.57L422.507 185.571Z" fill="#263238"/>
<path d="M396.272 170.524C396.272 170.524 400.104 162.866 405.368 161.933C406.007 171.187 409.631 178.505 422.525 185.571L414.896 197.318C404.281 188.315 398.309 179.384 396.272 170.524Z" fill="#263238"/>
<g opacity="0.2">
<path d="M427.703 163.691L425.096 170.775C420.988 168.228 416.915 163.296 416.38 158.4C416.018 154.867 417.847 151.8 419.211 151.782L427.703 163.691Z" fill="black"/>
</g>
<path d="M446.81 150.401C446.24 151.943 445.619 153.45 444.963 154.939C439.181 168.031 422.922 167.457 413.929 156.302C413.912 156.284 413.912 156.266 413.895 156.266C413.101 155.279 412.359 154.203 411.685 153.037C406.214 143.604 408.527 137.076 411.064 121.974C413.619 106.891 430.24 99.1614 442.702 108.434C454.214 117.006 452.574 135.031 446.81 150.401Z" fill="#FFC3BD"/>
<path d="M419.452 127.803C419.452 127.803 419.383 140.411 424.13 142.205C428.876 143.998 432.415 139.82 437.61 145.039C437.61 145.039 441.027 143.173 444.186 145.63C447.345 148.105 446.809 149.558 446.809 149.558C446.809 149.558 445.601 168.354 429.049 166.184C412.479 164.014 410.477 147.119 411.616 138.152L414.878 127.014L419.452 127.803Z" fill="#263238"/>
<path d="M430.223 145.379C430.223 145.379 434.555 147.011 440.492 148.446C440.492 148.446 438.404 153.504 433.14 151.154C429.808 149.666 430.223 145.379 430.223 145.379Z" fill="white"/>
<path d="M443.979 107.035C437.506 101.385 423.595 98.8027 417.191 105.331C410.788 111.859 410.753 123.373 410.753 123.373C410.753 123.373 410.581 125.454 411.823 126.835C411.944 126.96 412.082 127.176 412.238 127.409L419.435 128.628C420.005 125.543 421.213 119.93 423.232 119.625C427.029 119.069 424.44 114.729 425.252 112.29C427.892 104.362 448.622 109.779 451.021 121.903C451.021 121.921 450.451 112.684 443.979 107.035Z" fill="#263238"/>
<path d="M402.641 130.368C402.797 134.493 404.782 138.17 407.232 140.429C410.909 143.837 414.896 140.967 415.673 136.197C416.38 131.91 415.327 124.952 410.771 123.391C406.283 121.831 402.451 125.651 402.641 130.368Z" fill="#FFC3BD"/>
<path d="M432.328 131.265C432.069 132.412 432.432 133.506 433.157 133.686C433.882 133.865 434.693 133.076 434.952 131.928C435.211 130.762 434.849 129.686 434.124 129.507C433.399 129.31 432.604 130.099 432.328 131.265Z" fill="#263238"/>
<path d="M444.1 134.152C443.841 135.3 444.203 136.394 444.928 136.573C445.653 136.753 446.465 135.964 446.724 134.816C446.983 133.668 446.62 132.574 445.895 132.395C445.17 132.197 444.376 132.986 444.1 134.152Z" fill="#263238"/>
<path d="M449.175 130.637C448.985 130.583 448.812 130.44 448.743 130.207C448.467 129.22 448.001 128.539 447.345 128.18C446.257 127.57 444.963 127.965 444.946 127.965C444.652 128.072 444.307 127.893 444.221 127.57C444.117 127.247 444.29 126.906 444.6 126.799C444.669 126.781 446.378 126.243 447.897 127.104C448.847 127.642 449.503 128.574 449.865 129.884C449.952 130.207 449.779 130.547 449.468 130.637C449.365 130.655 449.261 130.655 449.175 130.637Z" fill="#263238"/>
<path d="M429.929 125.866C429.843 125.848 429.757 125.795 429.67 125.741C429.394 125.508 429.36 125.095 429.584 124.808C429.636 124.736 430.879 123.212 432.76 123.051C433.934 122.943 435.056 123.391 436.126 124.36C436.385 124.593 436.42 125.023 436.195 125.292C435.971 125.561 435.557 125.597 435.298 125.364C434.504 124.647 433.692 124.306 432.881 124.378C431.535 124.485 430.585 125.651 430.568 125.669C430.395 125.848 430.154 125.938 429.929 125.866Z" fill="#263238"/>
<path d="M440.078 131.57C440.078 131.57 440.665 136.95 442.236 140.662C443.807 144.393 437.61 142.994 437.61 142.994L440.078 131.57Z" fill="#ED847E"/>
<path d="M486.577 303.492C484.264 299.332 475.824 295.529 475.824 295.529C474.719 295.135 471.94 295.153 468.902 295.332L469.23 295.296C469.23 295.296 474.754 291.996 473.373 291.207C471.975 290.4 468.609 291.691 465.243 292.427C461.878 293.162 458.08 296.39 458.08 296.39C455.612 297.951 454.18 302.775 455.923 309.142C455.923 309.142 462.965 316.118 467.988 317.069C472.941 318.324 483.056 318.97 485.299 315.76C490.029 309.016 481.312 304.282 481.312 304.282C481.312 304.282 488.889 307.653 486.577 303.492Z" fill="#FFC3BD"/>
<path d="M455.353 293.341L453.386 307.384C439.043 306.577 424.889 305.232 410.65 303.259C403.521 302.291 396.41 301.107 389.213 299.708C385.606 299.009 381.998 298.202 378.305 297.251C374.611 296.283 370.917 295.26 366.74 293.574C365.688 293.144 364.583 292.66 363.375 292.05C362.167 291.404 360.889 290.687 359.215 289.36C358.369 288.678 357.42 287.853 356.281 286.454C355.729 285.773 355.09 284.84 354.503 283.71C354.192 283.065 353.916 282.491 353.64 281.702C353.519 281.307 353.398 280.912 353.278 280.518L353.191 280.123C352.674 277.953 352.553 276.68 352.397 275.406C351.914 270.69 351.828 266.941 351.741 263.032C351.672 255.337 351.793 247.895 352.069 240.434C352.553 225.53 353.588 210.859 355.038 196.063L382.551 198.556C382.154 205.766 381.515 213.065 381.066 220.311L379.444 242.03C378.926 249.24 378.356 256.449 378.063 263.444C377.942 265.901 377.839 268.43 377.821 270.618C379.927 271.64 382.464 272.645 385.001 273.559C388.108 274.671 391.336 275.711 394.598 276.752C401.122 278.814 407.836 280.679 414.568 282.545C428.048 286.203 441.752 289.79 455.353 293.341Z" fill="#263238"/>
<path d="M576.57 199.776C567.302 208.868 557.671 217.405 547.712 225.637C542.758 229.798 537.649 233.762 532.385 237.761C529.709 239.698 527.017 241.635 523.962 243.59C523.185 244.074 522.391 244.559 521.511 245.061C520.613 245.581 519.681 246.101 518.301 246.693C517.558 246.98 516.799 247.321 515.177 247.697L514.469 247.823C514.227 247.859 513.847 247.913 513.537 247.93C512.846 247.984 511.966 248.038 510.568 247.859L510.068 247.769L509.36 247.626C508.911 247.518 508.445 247.374 508.014 247.213L507.772 247.141L507.289 246.962C506.702 246.729 505.925 246.442 505.476 246.227L503.992 245.545C500.316 243.77 497.45 242.084 494.516 240.344C491.617 238.586 488.82 236.865 486.093 235.035C480.639 231.413 475.289 227.772 470.076 223.97C469.8 223.772 469.524 223.575 469.248 223.378C467.625 222.194 466.02 221.01 464.432 219.827C455.957 213.549 447.724 207.075 439.647 200.188L456.527 177.483C466.59 184.943 476.549 192.817 486.404 200.565C491.358 204.385 496.242 208.313 501.161 212.025C503.63 213.872 506.046 215.755 508.445 217.513C510.171 218.768 511.966 220.042 513.554 221.082C515.746 220.024 518.076 218.768 520.406 217.513C525.809 214.661 531.228 211.505 536.717 208.438C547.66 202.251 558.723 195.973 569.977 190.073L576.57 199.776Z" fill="#263238"/>
<path opacity="0.2" d="M469.248 223.378C467.626 222.194 466.02 221.01 464.432 219.827L462.965 195.31L469.248 223.378Z" fill="black"/>
<path d="M575.448 200.009C575.448 200.009 578.935 199.758 580.419 197.247C583.284 192.368 587.806 191.472 589.619 190.449C591.431 189.409 589.36 186.199 584.751 187.239C584.751 187.239 586.719 180.585 588.307 178.971C589.895 177.357 598.249 173.914 598.093 172.658C597.938 171.403 591.465 173.429 587.686 175.205C583.906 176.98 576.242 186.845 569.355 190.36C569.355 190.36 566.628 197.821 575.448 200.009Z" fill="#FFC3BD"/>
<path d="M246.956 192.243C248.458 204.044 249.58 215.935 250.581 227.79C251.116 233.708 251.513 239.662 251.996 245.581L252.635 254.423L253.256 262.332C253.204 262.547 253.481 263.857 253.808 265.022C254.119 266.224 254.516 267.533 254.913 268.842C255.724 271.479 256.674 274.205 257.588 276.931C259.418 282.437 261.455 287.943 263.405 293.521C267.375 304.622 271.396 315.831 275.125 327.13L262.87 333.443C256.449 323.328 250.512 313.016 244.799 302.47C241.916 297.215 239.207 291.853 236.479 286.383C235.133 283.639 233.856 280.841 232.561 277.935C231.923 276.465 231.284 274.994 230.663 273.38C230.041 271.73 229.42 270.187 228.764 267.497L228.54 266.421L228.419 265.758L228.212 264.538L227.815 262.189L227.09 257.669L225.709 248.737C224.881 242.783 224 236.865 223.276 230.928C221.757 219.055 220.41 207.201 219.496 195.274L246.956 192.243Z" fill="#407BFF"/>
<path d="M236.721 356.239L202.857 314.684C202.011 313.643 202.132 312.083 203.133 311.204L259.435 261.651C260.436 260.772 261.938 260.897 262.784 261.937L296.648 303.492C297.493 304.533 297.373 306.093 296.372 306.972L240.069 356.526C239.068 357.404 237.567 357.279 236.721 356.239Z" fill="#263238"/>
<path opacity="0.2" d="M236.721 356.239L202.857 314.684C202.011 313.643 202.132 312.083 203.133 311.204L259.435 261.651C260.436 260.772 261.938 260.897 262.784 261.937L296.648 303.492C297.493 304.533 297.373 306.093 296.372 306.972L240.069 356.526C239.068 357.404 237.567 357.279 236.721 356.239Z" fill="white"/>
<path d="M257.191 309.088C257.191 313.357 253.86 316.818 249.752 316.818C245.644 316.818 242.313 313.357 242.313 309.088C242.313 304.82 245.644 301.358 249.752 301.358C253.86 301.358 257.191 304.82 257.191 309.088Z" fill="#263238"/>
<path d="M212.298 101.152C212.298 101.152 199.232 100.991 196.057 116.307C192.743 132.269 191.793 125.992 184.768 133.596C177.744 141.201 185.424 151.513 173.308 157.234C173.308 157.234 183.405 167.439 203.047 163.422C222.689 159.422 219.944 173.949 245.299 170.111C245.299 170.111 241.33 162.489 246.853 155.62C252.376 148.769 248.268 143.765 248.492 136.484C248.717 129.202 250.529 113.366 240.898 106.551C231.267 99.7353 222.775 102.712 222.775 102.712C222.775 102.712 217.183 100.363 212.298 101.152Z" fill="#263238"/>
<path d="M246.421 649.096L251.375 670.277H262.093L262.577 649.096H246.421Z" fill="#FF8B7B"/>
<path d="M293.248 685.234C292.661 678.329 289.744 676.285 286.154 676.052C282.408 675.801 269.049 671.155 269.049 671.155C269.049 671.155 266.253 666.779 263.802 665.883C261.334 664.986 258.952 667.604 258.952 667.604L252.221 666.744C252.221 666.744 250.201 663.587 248.82 666.349C246.663 670.617 246.922 682.454 247.129 685.234H293.248Z" fill="#407BFF"/>
<path d="M292.367 683.441C289.571 683.423 286.792 683.423 283.996 683.405C271.793 683.351 259.608 683.261 247.405 683.208C246.939 683.208 247.043 682.472 247.491 682.472C248.32 682.49 249.148 682.472 249.977 682.49C249.977 682.454 249.994 682.418 250.011 682.401C252.272 678.419 250.771 674.384 247.509 672.375C247.129 672.16 247.578 671.514 247.94 671.747C251.461 673.917 252.98 678.24 250.702 682.49C252.428 682.508 254.137 682.508 255.863 682.526C268.048 682.58 280.251 682.67 292.436 682.723C292.92 682.705 292.833 683.441 292.367 683.441Z" fill="black"/>
<path d="M267.012 674.133C268.911 671.819 271.69 671.155 273.727 672.895C274.055 673.182 274.487 672.536 274.176 672.267C271.846 670.259 268.618 671.138 266.46 673.756C266.132 674.151 266.702 674.509 267.012 674.133Z" fill="white"/>
<path d="M270.792 675.37C272.691 673.057 275.47 672.393 277.507 674.133C277.835 674.42 278.267 673.774 277.956 673.505C275.626 671.496 272.398 672.375 270.24 674.993C269.912 675.388 270.482 675.747 270.792 675.37Z" fill="white"/>
<path d="M274.71 676.608C276.609 674.294 279.388 673.63 281.425 675.37C281.753 675.657 282.185 675.011 281.874 674.742C279.544 672.734 276.316 673.612 274.158 676.231C273.83 676.626 274.382 676.984 274.71 676.608Z" fill="white"/>
<path d="M202.046 371.86C204.22 393.184 208.518 420.786 216.285 456.279C218.546 466.591 221.101 477.585 223.983 489.297C216.095 557.054 246.991 654.924 246.991 654.924L263.543 654.548C263.543 654.548 265.614 545.164 263.664 487.898C260.471 394.081 249.476 304.694 249.476 304.694L204.393 304.515C204.393 304.515 196.609 318.611 202.046 371.86Z" fill="#263238"/>
<path opacity="0.2" d="M202.046 371.86C204.221 393.184 208.518 420.786 216.285 456.279C225.778 418.759 208.605 338.663 208.605 338.663L202.046 371.86Z" fill="black"/>
<path d="M265.424 658.583L265.96 651.212H243.867L245.127 658.583H265.424Z" fill="#263238"/>
<path d="M177.796 649.096L182.749 670.277H193.485L193.968 649.096H177.796Z" fill="#FF8B7B"/>
<path d="M197.213 658.583L197.731 651.212H175.655L176.915 658.583H197.213Z" fill="#263238"/>
<path d="M224.622 685.234C224.035 678.329 221.118 676.285 217.528 676.052C213.783 675.801 200.406 671.155 200.406 671.155C200.406 671.155 197.61 666.779 195.159 665.883C192.691 664.986 190.309 667.604 190.309 667.604L183.578 666.743C183.578 666.743 181.558 663.587 180.177 666.349C178.02 670.617 178.279 682.454 178.486 685.234H224.622Z" fill="#407BFF"/>
<path d="M223.742 683.441C220.946 683.423 218.167 683.423 215.371 683.405C203.168 683.351 190.982 683.261 178.779 683.208C178.313 683.208 178.417 682.472 178.866 682.472C179.694 682.49 180.523 682.472 181.351 682.49C181.351 682.454 181.368 682.418 181.386 682.401C183.647 678.419 182.145 674.384 178.883 672.375C178.503 672.16 178.952 671.514 179.314 671.747C182.835 673.917 184.354 678.24 182.076 682.49C183.802 682.508 185.511 682.508 187.237 682.526C199.422 682.58 211.625 682.67 223.811 682.723C224.311 682.705 224.208 683.441 223.742 683.441Z" fill="black"/>
<path d="M198.387 674.133C200.286 671.819 203.065 671.155 205.102 672.895C205.43 673.182 205.861 672.536 205.55 672.267C203.22 670.259 199.992 671.137 197.834 673.756C197.506 674.151 198.076 674.509 198.387 674.133Z" fill="white"/>
<path d="M202.167 675.37C204.065 673.057 206.845 672.393 208.882 674.133C209.21 674.42 209.641 673.774 209.33 673.505C207 671.496 203.772 672.375 201.614 674.993C201.304 675.388 201.856 675.747 202.167 675.37Z" fill="white"/>
<path d="M206.085 676.608C207.984 674.294 210.763 673.63 212.8 675.37C213.128 675.657 213.559 675.011 213.248 674.742C210.918 672.734 207.69 673.612 205.532 676.231C205.204 676.626 205.774 676.984 206.085 676.608Z" fill="white"/>
<path d="M217.562 308.299C217.562 308.299 209.14 437.806 206.378 489.297C203.237 548.105 196.143 648.342 195.193 654.907H178.089C180.056 656.897 156.134 566.919 165.782 493.673C156.738 423.602 145.744 372.308 159.931 306.344L217.562 308.299Z" fill="#263238"/>
<path d="M154.788 311.42C190.741 323.759 251.151 319.705 251.151 311.151C251.151 287.064 242.935 259.965 245.144 244.272C262.145 231.915 248.855 220.759 250.339 202.448C251.479 188.477 241.968 175.958 228.661 173.573C225.589 173.035 222.413 172.497 219.289 172.066C218.65 171.977 218.011 171.887 217.39 171.815C209.036 170.739 201.079 170.524 192.26 170.578C189.187 170.578 186.011 170.632 182.68 170.667C179.366 170.721 176.139 170.883 173.066 171.116C161.64 171.941 153.373 182.899 155.392 194.646C158.326 211.989 160.001 228.382 160.622 243.285C160.777 246.639 160.881 249.903 160.915 253.078C161.105 265.542 160.553 276.805 159.448 286.508C159.431 286.723 159.396 286.939 159.379 287.118C158.861 291.53 158.24 295.619 157.498 299.332C157.274 300.497 157.032 301.609 156.773 302.721C156.238 305.071 155.375 309.124 154.788 311.42Z" fill="#407BFF"/>
<path opacity="0.2" d="M251.133 311.151C251.133 319.705 190.723 323.759 154.788 311.42C155.375 309.124 156.238 305.053 156.756 302.739C157.015 301.645 157.256 300.533 157.481 299.349C158.223 295.619 158.844 291.548 159.362 287.136C159.379 286.939 159.431 286.723 159.448 286.526C160.536 276.823 161.088 265.56 160.898 253.096C160.864 249.903 160.76 246.657 160.605 243.285C160.398 238.353 160.087 233.278 159.621 228.041C159.345 224.669 159.017 221.226 158.62 217.746C157.791 210.285 156.721 202.573 155.375 194.664C153.355 182.899 161.623 171.941 173.049 171.116C176.121 170.883 179.349 170.739 182.663 170.685C185.994 170.632 189.17 170.578 192.242 170.578C201.062 170.524 209.019 170.739 217.373 171.815C218.011 171.887 218.633 171.959 219.271 172.066C222.396 172.479 225.589 173.017 228.661 173.555C241.951 175.94 251.479 188.477 250.322 202.43C248.855 220.741 262.128 231.915 245.127 244.272C242.935 259.965 251.133 287.064 251.133 311.151Z" fill="white"/>
<path opacity="0.2" d="M177.554 199.973L159.621 228.041C159.345 224.669 159.017 221.226 158.62 217.746V217.674L177.554 199.973Z" fill="black"/>
<path d="M219.289 202.627C219.289 203.291 219.806 203.829 220.445 203.829C221.084 203.829 221.602 203.291 221.602 202.627C221.602 201.964 221.084 201.426 220.445 201.426C219.789 201.426 219.289 201.964 219.289 202.627Z" fill="#407BFF"/>
<path d="M221.135 214.59C221.774 214.59 222.292 214.052 222.292 213.388C222.292 212.724 221.774 212.186 221.135 212.186C220.497 212.186 219.979 212.724 219.979 213.388C219.979 214.052 220.497 214.59 221.135 214.59Z" fill="#407BFF"/>
<path d="M221.135 225.548C221.774 225.548 222.292 225.01 222.292 224.346C222.292 223.683 221.774 223.145 221.135 223.145C220.497 223.145 219.979 223.683 219.979 224.346C219.979 225.01 220.497 225.548 221.135 225.548Z" fill="#407BFF"/>
<path d="M192.242 170.578C200.751 186.127 220.773 195.435 220.773 195.435C223.483 188.477 222.62 177.303 219.271 172.066C218.632 171.977 217.994 171.887 217.373 171.815C209.019 170.739 201.062 170.524 192.242 170.578Z" fill="#FF8B7B"/>
<path d="M219.513 176.693C219.582 176.927 219.686 177.16 219.824 177.393C222.723 182.146 219.565 186.468 214.594 186.091C214.111 186.055 213.627 185.984 213.161 185.894C211.366 185.517 209.709 184.567 208.467 183.168L208.449 183.15C202.477 176.424 196.057 171.313 196.057 171.313C203.547 167.152 206.275 152.338 206.982 143.084L218.598 158.454L220.773 161.808C219.72 163.745 218.788 165.753 218.253 167.744C217.407 170.865 217.494 173.932 219.513 176.693Z" fill="#FF8B7B"/>
<path d="M197.213 170.578C197.213 170.578 190.257 168.695 184.769 170.578L196.057 190.736C202.011 186.235 208.812 192.082 220.773 195.435C220.79 195.435 206.533 187.992 197.213 170.578Z" fill="#407BFF"/>
<path d="M197.213 170.578C197.213 170.578 190.257 168.695 184.769 170.578L196.057 190.736C202.011 186.235 208.812 192.082 220.773 195.435C220.79 195.435 206.533 187.992 197.213 170.578Z" fill="#407BFF"/>
<path d="M217.752 171.492C217.752 171.492 224.656 170.183 228.643 173.555C228.643 173.555 230.956 181.572 231.871 189.427C231.871 189.427 225.226 185.984 220.773 195.435C220.79 195.435 223.034 180.388 217.752 171.492Z" fill="#407BFF"/>
<path d="M217.752 171.492C217.752 171.492 224.656 170.183 228.643 173.555C228.643 173.555 230.956 181.572 231.871 189.427C231.871 189.427 225.226 185.984 220.773 195.435C220.79 195.435 223.034 180.388 217.752 171.492Z" fill="#407BFF"/>
<g opacity="0.2">
<path d="M218.27 167.78C218.805 165.789 219.737 163.78 220.79 161.843L218.615 158.49L211.297 158.669C211.28 158.651 213.213 164.785 218.27 167.78Z" fill="black"/>
</g>
<path d="M204.859 126.602C203.703 141.81 202.892 148.213 209.036 157.001C218.27 170.219 236.152 168.3 241.589 153.755C246.473 140.663 247.56 117.993 234.443 109.958C221.515 102.049 206.016 111.411 204.859 126.602Z" fill="#FF8B7B"/>
<path d="M208.07 136.555C200.734 134.529 203.617 126.655 203.617 126.655L214.421 128.395C214.421 128.395 215.405 138.564 208.07 136.555Z" fill="#263238"/>
<path d="M237.688 111.375C237.688 111.375 237.498 119.786 227.573 120.235C217.649 120.683 218.512 135.928 207.396 133.524C196.281 131.121 201.787 116.773 206.533 112.953C211.28 109.133 222.982 97.7087 237.688 111.375Z" fill="#263238"/>
<path d="M235.479 150.042C235.479 150.042 228.35 146.689 226.779 143.46C226.779 143.46 225.726 149.235 229.472 151.352C233.201 153.486 235.479 150.042 235.479 150.042Z" fill="white"/>
<path d="M228.937 133.381C228.764 134.601 229.265 135.695 230.042 135.802C230.818 135.91 231.578 135.013 231.733 133.776C231.906 132.556 231.405 131.462 230.629 131.354C229.852 131.265 229.092 132.161 228.937 133.381Z" fill="#263238"/>
<path d="M240.933 135.408C240.76 136.627 241.26 137.721 242.037 137.829C242.814 137.936 243.574 137.04 243.729 135.802C243.902 134.583 243.401 133.489 242.624 133.381C241.865 133.291 241.105 134.188 240.933 135.408Z" fill="#263238"/>
<path d="M242.279 133.417L245.231 132.986C245.231 132.986 243.47 135.067 242.279 133.417Z" fill="#263238"/>
<path d="M236.531 135.157C236.531 135.157 238.137 138.708 239.949 141.846C240.536 142.868 240.105 144.214 239 144.59C237.118 145.236 235.15 145.361 235.15 145.361L236.531 135.157Z" fill="#FF5652"/>
<path d="M198.283 136.304C199.198 139.371 201.217 141.523 203.271 142.456C206.361 143.855 208.467 140.429 208.07 136.555C207.707 133.076 205.653 128.162 202.322 128.413C199.06 128.664 197.248 132.789 198.283 136.304Z" fill="#FF8B7B"/>
<path d="M225.692 128.485C225.882 128.485 226.055 128.413 226.193 128.252C228.333 125.884 230.871 126.333 230.905 126.333C231.285 126.404 231.647 126.135 231.716 125.741C231.785 125.346 231.527 124.97 231.147 124.898C231.009 124.88 227.815 124.306 225.157 127.247C224.898 127.534 224.898 128.001 225.191 128.27C225.347 128.413 225.519 128.485 225.692 128.485Z" fill="#263238"/>
<path d="M246.439 130.691C246.612 130.709 246.784 130.655 246.94 130.529C247.233 130.278 247.285 129.812 247.043 129.507C244.609 126.368 241.399 126.673 241.261 126.673C240.881 126.709 240.587 127.068 240.639 127.462C240.674 127.857 241.019 128.144 241.399 128.108C241.52 128.09 244.023 127.911 245.956 130.404C246.077 130.583 246.267 130.673 246.439 130.691Z" fill="#263238"/>
<path d="M230.283 131.39L233.235 130.96C233.235 130.96 231.457 133.04 230.283 131.39Z" fill="#263238"/>
<path d="M140.548 265.74C146.572 275.783 153.286 285.88 159.862 295.834L149.696 305.34C140.583 296.874 132.177 288.015 124.134 278.294C120.095 273.416 116.246 268.34 112.57 262.458C111.655 260.969 110.758 259.427 109.895 257.705C109.032 255.983 108.186 254.136 107.426 251.804C107.047 250.657 106.701 249.329 106.443 247.715C106.201 246.119 105.976 244.182 106.391 241.456C106.822 238.963 107.426 237.474 107.961 236.129C108.496 234.802 109.032 233.816 109.549 232.811C111.621 229.027 113.64 226.301 115.659 223.557C117.696 220.849 119.733 218.32 121.787 215.863C125.964 211.021 130.14 206.376 134.473 201.928C143.085 192.996 151.871 184.603 161.312 176.568L179.245 198.395L153.424 222.535C149.196 226.606 144.95 230.588 140.997 234.695C138.995 236.703 137.044 238.73 135.249 240.739C133.472 242.693 131.797 244.774 130.762 246.227C130.745 246.262 130.71 246.28 130.693 246.316C130.814 246.657 130.934 247.034 131.073 247.41C131.47 248.468 131.953 249.634 132.471 250.836C134.645 255.642 137.58 260.7 140.548 265.74Z" fill="#407BFF"/>
<path opacity="0.2" d="M140.548 265.74C146.572 275.783 153.286 285.88 159.862 295.834L149.696 305.34C140.583 296.874 132.177 288.015 124.134 278.294C120.095 273.416 116.246 268.34 112.57 262.458C111.655 260.969 110.758 259.427 109.895 257.705C109.032 255.983 108.186 254.136 107.426 251.804C107.047 250.657 106.701 249.329 106.443 247.715C106.201 246.119 105.976 244.182 106.391 241.456C106.822 238.963 107.426 237.474 107.961 236.129C108.496 234.802 109.032 233.816 109.549 232.811C111.621 229.027 113.64 226.301 115.659 223.557C117.696 220.849 119.733 218.32 121.787 215.863C125.964 211.021 130.14 206.376 134.473 201.928C143.085 192.996 151.871 184.603 161.312 176.568L179.245 198.395L153.424 222.535C149.196 226.606 144.95 230.588 140.997 234.695C138.995 236.703 137.044 238.73 135.249 240.739C133.472 242.693 131.797 244.774 130.762 246.227C130.745 246.262 130.71 246.28 130.693 246.316C130.814 246.657 130.934 247.034 131.073 247.41C131.47 248.468 131.953 249.634 132.471 250.836C134.645 255.642 137.58 260.7 140.548 265.74Z" fill="white"/>
<path d="M159.189 291.386C159.189 291.386 170.65 295.798 172.427 298.13C174.205 300.461 162.934 313.626 158.568 315.473C154.201 317.32 156.445 311.85 156.445 311.85C156.445 311.85 150.801 313.213 148.16 308.765C145.536 304.299 148.643 292.14 159.189 291.386Z" fill="#FF8B7B"/>
<path d="M281.252 325.498C281.252 325.498 282.287 325.265 284.29 322.396C286.016 319.921 286.085 317.428 286.188 315.939L278.956 322.306C278.956 322.306 272.518 319.741 268.548 322.772C260.54 328.888 262.801 335.775 263.733 337.766C264.665 339.757 271.276 338.537 275.867 334.573C280.441 330.628 281.252 325.498 281.252 325.498Z" fill="#FF8B7B"/>
</g>
<defs>
<clipPath id="clip0_112_110808">
<rect width="863" height="693" fill="white"/>
</clipPath>
</defs>
</svg>
